<?xml version="1.0" encoding="UTF-8"?>
<svg width="805px" height="164px" viewBox="0 0 805 164" version="1.1" xmlns="http://www.w3.org/2000/svg" xmlns:xlink="http://www.w3.org/1999/xlink">
    <!-- Generator: Sketch 52.4 (67378) - http://www.bohemiancoding.com/sketch -->
    <title>Artboard</title>
    <desc>Created with Sketch.</desc>
    <defs>
        <path d="M50.70986,44.5552 C46.03424,44.5552 42.24426,48.3606 42.24426,53.0617 C42.24426,57.7564 46.03424,61.5617 50.70986,61.5617 C55.38548,61.5617 59.18197,57.7564 59.18197,53.0617 C59.18197,48.3606 55.38548,44.5552 50.70986,44.5552 L50.70986,44.5552 Z" id="path-1"></path>
        <path d="M68.84578,30.8571 C64.17016,30.8571 60.38018,34.6625 60.38018,39.3571 C60.38018,44.0583 64.17016,47.8637 68.84578,47.8637 C73.5214,47.8637 77.31789,44.0583 77.31789,39.3571 C77.31789,34.6625 73.5214,30.8571 68.84578,30.8571 L68.84578,30.8571 Z" id="path-3"></path>
        <path d="M50.83359,15.2825 C46.15797,15.2825 42.36148,19.0879 42.36148,23.789 C42.36148,28.4837 46.15797,32.289 50.83359,32.289 C55.5092,32.289 59.3057,28.4837 59.3057,23.789 C59.3057,19.0879 55.5092,15.2825 50.83359,15.2825 L50.83359,15.2825 Z" id="path-5"></path>
        <path d="M70.83845,7.1094 C66.15632,7.1094 62.36634,10.9214 62.36634,15.616 C62.36634,20.3106 66.15632,24.116 70.83845,24.116 C75.51407,24.116 79.30405,20.3106 79.30405,15.616 C79.30405,10.9214 75.51407,7.1094 70.83845,7.1094 L70.83845,7.1094 Z" id="path-7"></path>
        <path d="M92.07408,5.2394 C87.39847,5.2394 83.60848,9.0448 83.60848,13.746 C83.60848,18.4406 87.39847,22.2525 92.07408,22.2525 C96.7497,22.2525 100.5462,18.4406 100.5462,13.746 C100.5462,9.0448 96.7497,5.2394 92.07408,5.2394 L92.07408,5.2394 Z" id="path-9"></path>
        <path d="M112.6715,10.006 C107.9959,10.006 104.2059,13.8114 104.2059,18.5125 C104.2059,23.2071 107.9959,27.0125 112.6715,27.0125 C117.3472,27.0125 121.1371,23.2071 121.1371,18.5125 C121.1371,13.8114 117.3472,10.006 112.6715,10.006 L112.6715,10.006 Z" id="path-11"></path>
        <path d="M112.3329,35.5387 C107.6508,35.5387 103.8608,39.344 103.8608,44.0387 C103.8608,48.7333 107.6508,52.5452 112.3329,52.5452 C117.0085,52.5452 120.805,48.7333 120.805,44.0387 C120.805,39.344 117.0085,35.5387 112.3329,35.5387 L112.3329,35.5387 Z" id="path-13"></path>
        <path d="M130.7228,21.749 C126.0472,21.749 122.2572,25.5544 122.2572,30.249 C122.2572,34.9502 126.0472,38.7556 130.7228,38.7556 C135.3984,38.7556 139.1949,34.9502 139.1949,30.249 C139.1949,25.5544 135.3984,21.749 130.7228,21.749 L130.7228,21.749 Z" id="path-15"></path>
        <path d="M144.2873,37.6637 C139.6052,37.6637 135.8152,41.4756 135.8152,46.1637 C135.8152,50.8648 139.6052,54.6702 144.2873,54.6702 C148.9629,54.6702 152.7529,50.8648 152.7529,46.1637 C152.7529,41.4756 148.9629,37.6637 144.2873,37.6637 L144.2873,37.6637 Z" id="path-17"></path>
        <path d="M127.0761,52.7283 C122.4005,52.7283 118.6105,56.5337 118.6105,61.2348 C118.6105,65.9229 122.4005,69.7283 127.0761,69.7283 C131.7582,69.7283 135.5482,65.9229 135.5482,61.2348 C135.5482,56.5337 131.7582,52.7283 127.0761,52.7283 L127.0761,52.7283 Z" id="path-19"></path>
        <path d="M131.3154,74.85443 C126.6398,74.85443 122.8433,78.65982 122.8433,83.35443 C122.8433,88.05559 126.6398,91.86097 131.3154,91.86097 C135.9975,91.86097 139.7875,88.05559 139.7875,83.35443 C139.7875,78.65982 135.9975,74.85443 131.3154,74.85443 L131.3154,74.85443 Z" id="path-21"></path>
        <path d="M131.2373,97.22905 C126.5551,97.22905 122.7651,101.04097 122.7651,105.73559 C122.7651,110.43674 126.5551,114.24212 131.2373,114.24212 C135.9129,114.24212 139.7029,110.43674 139.7029,105.73559 C139.7029,101.04097 135.9129,97.22905 131.2373,97.22905 L131.2373,97.22905 Z" id="path-23"></path>
        <path d="M131.1461,120.06136 C126.4705,120.06136 122.6805,123.86674 122.6805,128.56789 C122.6805,133.26905 126.4705,137.07443 131.1461,137.07443 C135.8282,137.07443 139.6182,133.26905 139.6182,128.56789 C139.6182,123.86674 135.8282,120.06136 131.1461,120.06136 L131.1461,120.06136 Z" id="path-25"></path>
        <path d="M131.1461,141.95866 C126.4705,141.95866 122.6805,145.76405 122.6805,150.4652 C122.6805,155.15328 126.4705,158.9652 131.1461,158.9652 C135.8282,158.9652 139.6182,155.15328 139.6182,150.4652 C139.6182,145.76405 135.8282,141.95866 131.1461,141.95866 L131.1461,141.95866 Z" id="path-27"></path>
        <path d="M154.1139,79.10443 C149.4383,79.10443 145.6483,82.90982 145.6483,87.61097 C145.6483,92.30559 149.4383,96.11751 154.1139,96.11751 C158.7895,96.11751 162.586,92.30559 162.586,87.61097 C162.586,82.90982 158.7895,79.10443 154.1139,79.10443 L154.1139,79.10443 Z" id="path-29"></path>
        <path d="M195.7191,74.25943 C191.0435,74.25943 187.247,78.06482 187.247,82.75943 C187.247,87.46059 191.0435,91.26597 195.7191,91.26597 C200.3947,91.26597 204.1847,87.46059 204.1847,82.75943 C204.1847,78.06482 200.3947,74.25943 195.7191,74.25943 L195.7191,74.25943 Z" id="path-31"></path>
        <path d="M199.5286,51.5317 C194.853,51.5317 191.063,55.3437 191.063,60.0383 C191.063,64.7394 194.853,68.5448 199.5286,68.5448 C204.2107,68.5448 208.0007,64.7394 208.0007,60.0383 C208.0007,55.3437 204.2107,51.5317 199.5286,51.5317 L199.5286,51.5317 Z" id="path-33"></path>
        <path d="M223.3039,52.0483 C218.6283,52.0483 214.8383,55.8537 214.8383,60.5483 C214.8383,65.2494 218.6283,69.0548 223.3039,69.0548 C227.986,69.0548 231.776,65.2494 231.776,60.5483 C231.776,55.8537 227.986,52.0483 223.3039,52.0483 L223.3039,52.0483 Z" id="path-35"></path>
        <path d="M210.2148,30.7264 C205.5327,30.7264 201.7427,34.5383 201.7427,39.2264 C201.7427,43.9275 205.5327,47.7329 210.2148,47.7329 C214.8904,47.7329 218.6804,43.9275 218.6804,39.2264 C218.6804,34.5383 214.8904,30.7264 210.2148,30.7264 L210.2148,30.7264 Z" id="path-37"></path>
        <path d="M226.1041,14.8967 C221.4219,14.8967 217.632,18.7087 217.632,23.4033 C217.632,28.1044 221.4219,31.9098 226.1041,31.9098 C230.7797,31.9098 234.5762,28.1044 234.5762,23.4033 C234.5762,18.7087 230.7797,14.8967 226.1041,14.8967 L226.1041,14.8967 Z" id="path-39"></path>
        <path d="M237.2917,34.4271 C232.6161,34.4271 228.8196,38.2325 228.8196,42.9337 C228.8196,47.6348 232.6161,51.4402 237.2917,51.4402 C241.9673,51.4402 245.7573,47.6348 245.7573,42.9337 C245.7573,38.2325 241.9673,34.4271 237.2917,34.4271 L237.2917,34.4271 Z" id="path-41"></path>
        <path d="M246.5713,4.3044 C241.8957,4.3044 238.0992,8.1098 238.0992,12.811 C238.0992,17.5056 241.8957,21.311 246.5713,21.311 C251.2469,21.311 255.0434,17.5056 255.0434,12.811 C255.0434,8.1098 251.2469,4.3044 246.5713,4.3044 L246.5713,4.3044 Z" id="path-43"></path>
        <path d="M257.6287,24.7306 C252.953,24.7306 249.1631,28.536 249.1631,33.2371 C249.1631,37.9252 252.953,41.7371 257.6287,41.7371 C262.3108,41.7371 266.1008,37.9252 266.1008,33.2371 C266.1008,28.536 262.3108,24.7306 257.6287,24.7306 L257.6287,24.7306 Z" id="path-45"></path>
        <path d="M268.9465,0.9894 C264.2709,0.9894 260.4809,4.7948 260.4809,9.4894 C260.4809,14.1906 264.2709,17.996 268.9465,17.996 C273.6221,17.996 277.4186,14.1906 277.4186,9.4894 C277.4186,4.7948 273.6221,0.9894 268.9465,0.9894 L268.9465,0.9894 Z" id="path-47"></path>
        <path d="M199.4049,97.10482 C194.7293,97.10482 190.9328,100.9102 190.9328,105.61136 C190.9328,110.30597 194.7293,114.11789 199.4049,114.11789 C204.0805,114.11789 207.8705,110.30597 207.8705,105.61136 C207.8705,100.9102 204.0805,97.10482 199.4049,97.10482 L199.4049,97.10482 Z" id="path-49"></path>
        <path d="M223.1802,96.72559 C218.4981,96.72559 214.7081,100.53097 214.7081,105.22559 C214.7081,109.9202 218.4981,113.73212 223.1802,113.73212 C227.8558,113.73212 231.6458,109.9202 231.6458,105.22559 C231.6458,100.53097 227.8558,96.72559 223.1802,96.72559 L223.1802,96.72559 Z" id="path-51"></path>
        <path d="M210.2148,117.78597 C205.5327,117.78597 201.7427,121.59136 201.7427,126.28597 C201.7427,130.98712 205.5327,134.79251 210.2148,134.79251 C214.8904,134.79251 218.6804,130.98712 218.6804,126.28597 C218.6804,121.59136 214.8904,117.78597 210.2148,117.78597 L210.2148,117.78597 Z" id="path-53"></path>
        <path d="M237.2982,114.50366 C232.6161,114.50366 228.8261,118.30905 228.8261,123.00366 C228.8261,127.70482 232.6161,131.5102 237.2982,131.5102 C241.9738,131.5102 245.7703,127.70482 245.7703,123.00366 C245.7703,118.30905 241.9738,114.50366 237.2982,114.50366 L237.2982,114.50366 Z" id="path-55"></path>
        <path d="M226.1041,133.81174 C221.435,133.81174 217.6385,137.61712 217.6385,142.31828 C217.6385,147.01289 221.435,150.81828 226.1041,150.81828 C230.7862,150.81828 234.5762,147.01289 234.5762,142.31828 C234.5762,137.61712 230.7862,133.81174 226.1041,133.81174 L226.1041,133.81174 Z" id="path-57"></path>
        <path d="M246.7015,144.02482 C242.0259,144.02482 238.2359,147.8302 238.2359,152.53136 C238.2359,157.22597 242.0259,161.031355 246.7015,161.031355 C251.3837,161.031355 255.1736,157.22597 255.1736,152.53136 C255.1736,147.8302 251.3837,144.02482 246.7015,144.02482 L246.7015,144.02482 Z" id="path-59"></path>
        <path d="M257.5114,123.98443 C252.8293,123.98443 249.0393,127.78982 249.0393,132.49097 C249.0393,137.18559 252.8293,140.99097 257.5114,140.99097 C262.1871,140.99097 265.9836,137.18559 265.9836,132.49097 C265.9836,127.78982 262.1871,123.98443 257.5114,123.98443 L257.5114,123.98443 Z" id="path-61"></path>
        <path d="M268.8228,147.47059 C264.1472,147.47059 260.3572,151.27597 260.3572,155.97712 C260.3572,160.67174 264.1472,164.477124 268.8228,164.477124 C273.5049,164.477124 277.2949,160.67174 277.2949,155.97712 C277.2949,151.27597 273.5049,147.47059 268.8228,147.47059 L268.8228,147.47059 Z" id="path-63"></path>
        <path d="M280.1406,124.1152 C275.465,124.1152 271.675,127.92059 271.675,132.6152 C271.675,137.30982 275.465,141.12174 280.1406,141.12174 C284.8163,141.12174 288.6128,137.30982 288.6128,132.6152 C288.6128,127.92059 284.8163,124.1152 280.1406,124.1152 L280.1406,124.1152 Z" id="path-65"></path>
        <path d="M291.5822,144.02482 C286.9066,144.02482 283.1101,147.8302 283.1101,152.53136 C283.1101,157.22597 286.9066,161.031355 291.5822,161.031355 C296.2578,161.031355 300.0478,157.22597 300.0478,152.53136 C300.0478,147.8302 296.2578,144.02482 291.5822,144.02482 L291.5822,144.02482 Z" id="path-67"></path>
        <path d="M300.4841,114.28136 C295.802,114.28136 292.012,118.09328 292.012,122.78789 C292.012,127.48251 295.802,131.28789 300.4841,131.28789 C305.1597,131.28789 308.9497,127.48251 308.9497,122.78789 C308.9497,118.09328 305.1597,114.28136 300.4841,114.28136 L300.4841,114.28136 Z" id="path-69"></path>
        <path d="M311.6652,133.81174 C306.9896,133.81174 303.1996,137.61712 303.1996,142.31828 C303.1996,147.01289 306.9896,150.81828 311.6652,150.81828 C316.3474,150.81828 320.1373,147.01289 320.1373,142.31828 C320.1373,137.61712 316.3474,133.81174 311.6652,133.81174 L311.6652,133.81174 Z" id="path-71"></path>
        <path d="M327.815,117.47212 C323.1394,117.47212 319.3429,121.28405 319.3429,125.97866 C319.3429,130.67328 323.1394,134.47866 327.815,134.47866 C332.4906,134.47866 336.2806,130.67328 336.2806,125.97866 C336.2806,121.28405 332.4906,117.47212 327.815,117.47212 L327.815,117.47212 Z" id="path-73"></path>
        <path d="M314.2114,96.28097 C309.5358,96.28097 305.7393,100.09289 305.7393,104.78751 C305.7393,109.48866 309.5358,113.29405 314.2114,113.29405 C318.887,113.29405 322.6835,109.48866 322.6835,104.78751 C322.6835,100.09289 318.887,96.28097 314.2114,96.28097 L314.2114,96.28097 Z" id="path-75"></path>
        <path d="M338.2407,97.17674 C333.5586,97.17674 329.7686,100.98212 329.7686,105.67674 C329.7686,110.37789 333.5586,114.18328 338.2407,114.18328 C342.9163,114.18328 346.7128,110.37789 346.7128,105.67674 C346.7128,100.98212 342.9163,97.17674 338.2407,97.17674 L338.2407,97.17674 Z" id="path-77"></path>
        <path d="M341.8028,74.20059 C337.1206,74.20059 333.3307,78.00597 333.3307,82.70059 C333.3307,87.40174 337.1206,91.20712 341.8028,91.20712 C346.4784,91.20712 350.2684,87.40174 350.2684,82.70059 C350.2684,78.00597 346.4784,74.20059 341.8028,74.20059 L341.8028,74.20059 Z" id="path-79"></path>
        <path d="M375.2419,74.32482 C370.5598,74.32482 366.7698,78.13674 366.7698,82.83136 C366.7698,87.53251 370.5598,91.33789 375.2419,91.33789 C379.9175,91.33789 383.7075,87.53251 383.7075,82.83136 C383.7075,78.13674 379.9175,74.32482 375.2419,74.32482 L375.2419,74.32482 Z" id="path-81"></path>
        <path d="M397.4869,74.45559 C392.8113,74.45559 389.0213,78.26097 389.0213,82.96212 C389.0213,87.65674 392.8113,91.46212 397.4869,91.46212 C402.1625,91.46212 405.959,87.65674 405.959,82.96212 C405.959,78.26097 402.1625,74.45559 397.4869,74.45559 L397.4869,74.45559 Z" id="path-83"></path>
        <path d="M378.7974,97.30097 C374.1218,97.30097 370.3318,101.10636 370.3318,105.80751 C370.3318,110.50212 374.1218,114.30751 378.7974,114.30751 C383.4731,114.30751 387.263,110.50212 387.263,105.80751 C387.263,101.10636 383.4731,97.30097 378.7974,97.30097 L378.7974,97.30097 Z" id="path-85"></path>
        <path d="M402.6249,96.69943 C397.9492,96.69943 394.1593,100.51136 394.1593,105.20597 C394.1593,109.90059 397.9492,113.70597 402.6249,113.70597 C407.3005,113.70597 411.0905,109.90059 411.0905,105.20597 C411.0905,100.51136 407.3005,96.69943 402.6249,96.69943 L402.6249,96.69943 Z" id="path-87"></path>
        <path d="M378.9277,51.571 C374.2521,51.571 370.4556,55.3764 370.4556,60.071 C370.4556,64.7656 374.2521,68.571 378.9277,68.571 C383.6033,68.571 387.3933,64.7656 387.3933,60.071 C387.3933,55.3764 383.6033,51.571 378.9277,51.571 L378.9277,51.571 Z" id="path-89"></path>
        <path d="M402.7942,52.081 C398.112,52.081 394.3221,55.8864 394.3221,60.581 C394.3221,65.2756 398.112,69.0875 402.7942,69.0875 C407.4698,69.0875 411.2598,65.2756 411.2598,60.581 C411.2598,55.8864 407.4698,52.081 402.7942,52.081 L402.7942,52.081 Z" id="path-91"></path>
        <path d="M389.8288,30.759 C385.1466,30.759 381.3567,34.571 381.3567,39.2656 C381.3567,43.9602 385.1466,47.7656 389.8288,47.7656 C394.5044,47.7656 398.2944,43.9602 398.2944,39.2656 C398.2944,34.571 394.5044,30.759 389.8288,30.759 L389.8288,30.759 Z" id="path-93"></path>
        <path d="M416.9057,34.2048 C412.2301,34.2048 408.4336,38.0167 408.4336,42.7114 C408.4336,47.406 412.2301,51.2114 416.9057,51.2114 C421.5813,51.2114 425.3713,47.406 425.3713,42.7114 C425.3713,38.0167 421.5813,34.2048 416.9057,34.2048 L416.9057,34.2048 Z" id="path-95"></path>
        <path d="M404.8259,15.0602 C400.1503,15.0602 396.3538,18.8721 396.3538,23.5602 C396.3538,28.2614 400.1503,32.0667 404.8259,32.0667 C409.508,32.0667 413.298,28.2614 413.298,23.5602 C413.298,18.8721 409.508,15.0602 404.8259,15.0602 L404.8259,15.0602 Z" id="path-97"></path>
        <path d="M425.9313,4.2129 C421.2492,4.2129 417.4592,8.0183 417.4592,12.7129 C417.4592,17.414 421.2492,21.2194 425.9313,21.2194 C430.6069,21.2194 434.4034,17.414 434.4034,12.7129 C434.4034,8.0183 430.6069,4.2129 425.9313,4.2129 L425.9313,4.2129 Z" id="path-99"></path>
        <path d="M436.8649,24.7633 C432.1893,24.7633 428.3928,28.5687 428.3928,33.2633 C428.3928,37.9644 432.1893,41.7698 436.8649,41.7698 C441.5406,41.7698 445.3305,37.9644 445.3305,33.2633 C445.3305,28.5687 441.5406,24.7633 436.8649,24.7633 L436.8649,24.7633 Z" id="path-101"></path>
        <path d="M448.3065,1.0156 C443.6244,1.0156 439.8344,4.821 439.8344,9.5221 C439.8344,14.2167 443.6244,18.0287 448.3065,18.0287 C452.9821,18.0287 456.7786,14.2167 456.7786,9.5221 C456.7786,4.821 452.9821,1.0156 448.3065,1.0156 L448.3065,1.0156 Z" id="path-103"></path>
        <path d="M459.6179,24.7633 C454.9423,24.7633 451.1458,28.5687 451.1458,33.2633 C451.1458,37.9644 454.9423,41.7698 459.6179,41.7698 C464.3,41.7698 468.09,37.9644 468.09,33.2633 C468.09,28.5687 464.3,24.7633 459.6179,24.7633 L459.6179,24.7633 Z" id="path-105"></path>
        <path d="M471.066,4.7164 C466.3838,4.7164 462.5939,8.5283 462.5939,13.2229 C462.5939,17.9175 466.3838,21.7294 471.066,21.7294 C475.7416,21.7294 479.5316,17.9175 479.5316,13.2229 C479.5316,8.5283 475.7416,4.7164 471.066,4.7164 L471.066,4.7164 Z" id="path-107"></path>
        <path d="M491.0253,14.8052 C486.3431,14.8052 482.5531,18.6106 482.5531,23.3117 C482.5531,28.0064 486.3431,31.8117 491.0253,31.8117 C495.7009,31.8117 499.4909,28.0064 499.4909,23.3117 C499.4909,18.6106 495.7009,14.8052 491.0253,14.8052 L491.0253,14.8052 Z" id="path-109"></path>
        <path d="M480.3391,34.4664 C475.67,34.4664 471.8735,38.2717 471.8735,42.9664 C471.8735,47.661 475.67,51.4729 480.3391,51.4729 C485.0212,51.4729 488.8112,47.661 488.8112,42.9664 C488.8112,38.2717 485.0212,34.4664 480.3391,34.4664 L480.3391,34.4664 Z" id="path-111"></path>
        <path d="M507.1685,31.269 C502.4864,31.269 498.6964,35.0744 498.6964,39.7756 C498.6964,44.4702 502.4864,48.2756 507.1685,48.2756 C511.8506,48.2756 515.6406,44.4702 515.6406,39.7756 C515.6406,35.0744 511.8506,31.269 507.1685,31.269 L507.1685,31.269 Z" id="path-113"></path>
        <path d="M493.7277,52.4929 C489.0456,52.4929 485.2556,56.3048 485.2556,60.9994 C485.2556,65.694 489.0456,69.506 493.7277,69.506 C498.4033,69.506 502.1998,65.694 502.1998,60.9994 C502.1998,56.3048 498.4033,52.4929 493.7277,52.4929 L493.7277,52.4929 Z" id="path-115"></path>
        <path d="M517.6333,51.7344 C512.9512,51.7344 509.1612,55.5398 509.1612,60.2344 C509.1612,64.929 512.9512,68.741 517.6333,68.741 C522.3024,68.741 526.0989,64.929 526.0989,60.2344 C526.0989,55.5398 522.3024,51.7344 517.6333,51.7344 L517.6333,51.7344 Z" id="path-117"></path>
        <path d="M521.8205,74.06982 C517.1449,74.06982 513.3549,77.8752 513.3549,82.57636 C513.3549,87.26443 517.1449,91.07636 521.8205,91.07636 C526.5026,91.07636 530.2926,87.26443 530.2926,82.57636 C530.2926,77.8752 526.5026,74.06982 521.8205,74.06982 L521.8205,74.06982 Z" id="path-119"></path>
        <path d="M796.0734,142.17443 C791.3978,142.17443 787.6078,145.97982 787.6078,150.67443 C787.6078,155.37559 791.3978,159.18097 796.0734,159.18097 C800.7555,159.18097 804.5455,155.37559 804.5455,150.67443 C804.5455,145.97982 800.7555,142.17443 796.0734,142.17443 L796.0734,142.17443 Z" id="path-121"></path>
        <path d="M560.4757,141.84097 C555.8001,141.84097 552.0101,145.65289 552.0101,150.34751 C552.0101,155.04212 555.8001,158.85405 560.4757,158.85405 C565.1579,158.85405 568.9478,155.04212 568.9478,150.34751 C568.9478,145.65289 565.1579,141.84097 560.4757,141.84097 L560.4757,141.84097 Z" id="path-123"></path>
        <path d="M582.6882,141.84097 C578.006,141.84097 574.2161,145.65289 574.2161,150.34751 C574.2161,155.04212 578.006,158.85405 582.6882,158.85405 C587.3638,158.85405 591.1538,155.04212 591.1538,150.34751 C591.1538,145.65289 587.3638,141.84097 582.6882,141.84097 L582.6882,141.84097 Z" id="path-125"></path>
        <path d="M560.4757,119.54482 C555.8001,119.54482 552.0101,123.3502 552.0101,128.05136 C552.0101,132.74597 555.8001,136.55789 560.4757,136.55789 C565.1579,136.55789 568.9478,132.74597 568.9478,128.05136 C568.9478,123.3502 565.1579,119.54482 560.4757,119.54482 L560.4757,119.54482 Z" id="path-127"></path>
        <path d="M582.6882,119.54482 C578.006,119.54482 574.2161,123.3502 574.2161,128.05136 C574.2161,132.74597 578.006,136.55789 582.6882,136.55789 C587.3638,136.55789 591.1538,132.74597 591.1538,128.05136 C591.1538,123.3502 587.3638,119.54482 582.6882,119.54482 L582.6882,119.54482 Z" id="path-129"></path>
        <path d="M560.4757,96.56866 C555.8001,96.56866 552.0101,100.37405 552.0101,105.0752 C552.0101,109.76982 555.8001,113.5752 560.4757,113.5752 C565.1579,113.5752 568.9478,109.76982 568.9478,105.0752 C568.9478,100.37405 565.1579,96.56866 560.4757,96.56866 L560.4757,96.56866 Z" id="path-131"></path>
        <path d="M582.6882,96.56866 C578.006,96.56866 574.2161,100.37405 574.2161,105.0752 C574.2161,109.76982 578.006,113.5752 582.6882,113.5752 C587.3638,113.5752 591.1538,109.76982 591.1538,105.0752 C591.1538,100.37405 587.3638,96.56866 582.6882,96.56866 L582.6882,96.56866 Z" id="path-133"></path>
        <path d="M560.4757,74.40982 C555.8001,74.40982 552.0101,78.2152 552.0101,82.91636 C552.0101,87.61097 555.8001,91.41636 560.4757,91.41636 C565.1579,91.41636 568.9478,87.61097 568.9478,82.91636 C568.9478,78.2152 565.1579,74.40982 560.4757,74.40982 L560.4757,74.40982 Z" id="path-135"></path>
        <path d="M582.6882,74.40982 C578.006,74.40982 574.2161,78.2152 574.2161,82.91636 C574.2161,87.61097 578.006,91.41636 582.6882,91.41636 C587.3638,91.41636 591.1538,87.61097 591.1538,82.91636 C591.1538,78.2152 587.3638,74.40982 582.6882,74.40982 L582.6882,74.40982 Z" id="path-137"></path>
        <path d="M560.4757,51.4337 C555.8001,51.4337 552.0101,55.239 552.0101,59.9402 C552.0101,64.6348 555.8001,68.4402 560.4757,68.4402 C565.1579,68.4402 568.9478,64.6348 568.9478,59.9402 C568.9478,55.239 565.1579,51.4337 560.4757,51.4337 L560.4757,51.4337 Z" id="path-139"></path>
        <path d="M582.6882,51.4337 C578.006,51.4337 574.2161,55.239 574.2161,59.9402 C574.2161,64.6348 578.006,68.4402 582.6882,68.4402 C587.3638,68.4402 591.1538,64.6348 591.1538,59.9402 C591.1538,55.239 587.3638,51.4337 582.6882,51.4337 L582.6882,51.4337 Z" id="path-141"></path>
        <path d="M560.4757,29.1375 C555.8001,29.1375 552.0101,32.9429 552.0101,37.644 C552.0101,42.3387 555.8001,46.144 560.4757,46.144 C565.1579,46.144 568.9478,42.3387 568.9478,37.644 C568.9478,32.9429 565.1579,29.1375 560.4757,29.1375 L560.4757,29.1375 Z" id="path-143"></path>
        <path d="M582.6882,29.1375 C578.006,29.1375 574.2161,32.9429 574.2161,37.644 C574.2161,42.3387 578.006,46.144 582.6882,46.144 C587.3638,46.144 591.1538,42.3387 591.1538,37.644 C591.1538,32.9429 587.3638,29.1375 582.6882,29.1375 L582.6882,29.1375 Z" id="path-145"></path>
        <path d="M602.3479,37.814 C597.6658,37.814 593.8758,41.626 593.8758,46.3206 C593.8758,51.0217 597.6658,54.8271 602.3479,54.8271 C607.0235,54.8271 610.8135,51.0217 610.8135,46.3206 C610.8135,41.626 607.0235,37.814 602.3479,37.814 L602.3479,37.814 Z" id="path-147"></path>
        <path d="M602.3479,10.5814 C597.6658,10.5814 593.8758,14.3933 593.8758,19.0879 C593.8758,23.789 597.6658,27.5944 602.3479,27.5944 C607.0235,27.5944 610.8135,23.789 610.8135,19.0879 C610.8135,14.3933 607.0235,10.5814 602.3479,10.5814 L602.3479,10.5814 Z" id="path-149"></path>
        <path d="M624.2152,4.4614 C619.5396,4.4614 615.7431,8.2667 615.7431,12.9614 C615.7431,17.656 619.5396,21.4679 624.2152,21.4679 C628.8908,21.4679 632.6808,17.656 632.6808,12.9614 C632.6808,8.2667 628.8908,4.4614 624.2152,4.4614 L624.2152,4.4614 Z" id="path-151"></path>
        <path d="M645.5745,6.1614 C640.8924,6.1614 637.1024,9.9667 637.1024,14.6679 C637.1024,19.3625 640.8924,23.1679 645.5745,23.1679 C650.2502,23.1679 654.0401,19.3625 654.0401,14.6679 C654.0401,9.9667 650.2502,6.1614 645.5745,6.1614 L645.5745,6.1614 Z" id="path-153"></path>
        <path d="M641.1659,28.2875 C636.4903,28.2875 632.7003,32.0929 632.7003,36.7875 C632.7003,41.4887 636.4903,45.294 641.1659,45.294 C645.8415,45.294 649.638,41.4887 649.638,36.7875 C649.638,32.0929 645.8415,28.2875 641.1659,28.2875 L641.1659,28.2875 Z" id="path-155"></path>
        <path d="M666.2567,16.3744 C661.5745,16.3744 657.7845,20.1798 657.7845,24.881 C657.7845,29.5756 661.5745,33.381 666.2567,33.381 C670.9258,33.381 674.7223,29.5756 674.7223,24.881 C674.7223,20.1798 670.9258,16.3744 666.2567,16.3744 L666.2567,16.3744 Z" id="path-157"></path>
        <path d="M680.3226,32.544 C675.647,32.544 671.857,36.3494 671.857,41.044 C671.857,45.7452 675.647,49.5506 680.3226,49.5506 C684.9982,49.5506 688.7947,45.7452 688.7947,41.044 C688.7947,36.3494 684.9982,32.544 680.3226,32.544 L680.3226,32.544 Z" id="path-159"></path>
        <path d="M696.0881,19.0944 C691.406,19.0944 687.616,22.9064 687.616,27.601 C687.616,32.2956 691.406,36.1075 696.0881,36.1075 C700.7637,36.1075 704.5602,32.2956 704.5602,27.601 C704.5602,22.9064 700.7637,19.0944 696.0881,19.0944 L696.0881,19.0944 Z" id="path-161"></path>
        <path d="M715.0706,8.2079 C710.395,8.2079 706.605,12.0133 706.605,16.7079 C706.605,21.4025 710.395,25.2079 715.0706,25.2079 C719.7527,25.2079 723.5427,21.4025 723.5427,16.7079 C723.5427,12.0133 719.7527,8.2079 715.0706,8.2079 L715.0706,8.2079 Z" id="path-163"></path>
        <path d="M724.7084,28.1633 C720.0328,28.1633 716.2428,31.9752 716.2428,36.6698 C716.2428,41.3644 720.0328,45.1764 724.7084,45.1764 C729.3905,45.1764 733.1805,41.3644 733.1805,36.6698 C733.1805,31.9752 729.3905,28.1633 724.7084,28.1633 L724.7084,28.1633 Z" id="path-165"></path>
        <path d="M735.3946,3.6571 C730.7124,3.6571 726.9225,7.469 726.9225,12.1637 C726.9225,16.8583 730.7124,20.6637 735.3946,20.6637 C740.0702,20.6637 743.8602,16.8583 743.8602,12.1637 C743.8602,7.469 740.0702,3.6571 735.3946,3.6571 L735.3946,3.6571 Z" id="path-167"></path>
        <path d="M745.7356,27.9933 C741.0535,27.9933 737.2635,31.8052 737.2635,36.4998 C737.2635,41.201 741.0535,45.0064 745.7356,45.0064 C750.4047,45.0064 754.2012,41.201 754.2012,36.4998 C754.2012,31.8052 750.4047,27.9933 745.7356,27.9933 L745.7356,27.9933 Z" id="path-169"></path>
        <path d="M756.9167,8.2537 C752.2411,8.2537 748.4446,12.059 748.4446,16.7602 C748.4446,21.4548 752.2411,25.2602 756.9167,25.2602 C761.5989,25.2602 765.3888,21.4548 765.3888,16.7602 C765.3888,12.059 761.5989,8.2537 756.9167,8.2537 L756.9167,8.2537 Z" id="path-171"></path>
        <path d="M775.3978,19.1467 C770.7157,19.1467 766.9257,22.9521 766.9257,27.6533 C766.9257,32.3479 770.7157,36.1533 775.3978,36.1533 C780.0734,36.1533 783.8634,32.3479 783.8634,27.6533 C783.8634,22.9521 780.0734,19.1467 775.3978,19.1467 L775.3978,19.1467 Z" id="path-173"></path>
        <path d="M764.2037,38.5464 C759.528,38.5464 755.7381,42.3583 755.7381,47.0529 C755.7381,51.754 759.528,55.5594 764.2037,55.5594 C768.8858,55.5594 772.6758,51.754 772.6758,47.0529 C772.6758,42.3583 768.8858,38.5464 764.2037,38.5464 L764.2037,38.5464 Z" id="path-175"></path>
        <path d="M788.7865,35.6564 C784.1108,35.6564 780.3143,39.4617 780.3143,44.1564 C780.3143,48.8575 784.1108,52.6629 788.7865,52.6629 C793.4621,52.6629 797.2521,48.8575 797.2521,44.1564 C797.2521,39.4617 793.4621,35.6564 788.7865,35.6564 L788.7865,35.6564 Z" id="path-177"></path>
        <path d="M772.8516,57.1025 C768.176,57.1025 764.386,60.9079 764.386,65.6025 C764.386,70.30366 768.176,74.10905 772.8516,74.10905 C777.5272,74.10905 781.3237,70.30366 781.3237,65.6025 C781.3237,60.9079 777.5272,57.1025 772.8516,57.1025 L772.8516,57.1025 Z" id="path-179"></path>
        <path d="M773.874,78.20866 C769.1918,78.20866 765.4019,82.01405 765.4019,86.7152 C765.4019,91.40328 769.1918,95.2152 773.874,95.2152 C778.5496,95.2152 782.3396,91.40328 782.3396,86.7152 C782.3396,82.01405 778.5496,78.20866 773.874,78.20866 L773.874,78.20866 Z" id="path-181"></path>
        <path d="M796.2492,77.18866 C791.5671,77.18866 787.7771,80.99405 787.7771,85.68866 C787.7771,90.38982 791.5671,94.1952 796.2492,94.1952 C800.9183,94.1952 804.7148,90.38982 804.7148,85.68866 C804.7148,80.99405 800.9183,77.18866 796.2492,77.18866 L796.2492,77.18866 Z" id="path-183"></path>
        <path d="M796.0734,98.97482 C791.3978,98.97482 787.6078,102.7802 787.6078,107.47482 C787.6078,112.16943 791.3978,115.97482 796.0734,115.97482 C800.7555,115.97482 804.5455,112.16943 804.5455,107.47482 C804.5455,102.7802 800.7555,98.97482 796.0734,98.97482 L796.0734,98.97482 Z" id="path-185"></path>
        <path d="M796.0734,120.41443 C791.3978,120.41443 787.6078,124.22636 787.6078,128.91443 C787.6078,133.61559 791.3978,137.42097 796.0734,137.42097 C800.7555,137.42097 804.5455,133.61559 804.5455,128.91443 C804.5455,124.22636 800.7555,120.41443 796.0734,120.41443 L796.0734,120.41443 Z" id="path-187"></path>
        <path d="M774.0368,99.65482 C769.3612,99.65482 765.5712,103.4602 765.5712,108.15482 C765.5712,112.84943 769.3612,116.65482 774.0368,116.65482 C778.7189,116.65482 782.5089,112.84943 782.5089,108.15482 C782.5089,103.4602 778.7189,99.65482 774.0368,99.65482 L774.0368,99.65482 Z" id="path-189"></path>
        <path d="M773.874,120.92443 C769.1918,120.92443 765.4019,124.73636 765.4019,129.43097 C765.4019,134.12559 769.1918,137.93751 773.874,137.93751 C778.5496,137.93751 782.3396,134.12559 782.3396,129.43097 C782.3396,124.73636 778.5496,120.92443 773.874,120.92443 L773.874,120.92443 Z" id="path-191"></path>
        <path d="M773.874,142.20059 C769.1918,142.20059 765.4019,146.00597 765.4019,150.70712 C765.4019,155.40174 769.1918,159.21366 773.874,159.21366 C778.5496,159.21366 782.3396,155.40174 782.3396,150.70712 C782.3396,146.00597 778.5496,142.20059 773.874,142.20059 L773.874,142.20059 Z" id="path-193"></path>
        <path d="M795.305,55.6706 C790.6228,55.6706 786.8329,59.476 786.8329,64.1706 C786.8329,68.8652 790.6228,72.67712 795.305,72.67712 C799.9806,72.67712 803.7706,68.8652 803.7706,64.1706 C803.7706,59.476 799.9806,55.6706 795.305,55.6706 L795.305,55.6706 Z" id="path-195"></path>
        <path d="M706.7678,39.8606 C702.0922,39.8606 698.2957,43.666 698.2957,48.3671 C698.2957,53.0617 702.0922,56.8671 706.7678,56.8671 C711.4434,56.8671 715.2334,53.0617 715.2334,48.3671 C715.2334,43.666 711.4434,39.8606 706.7678,39.8606 L706.7678,39.8606 Z" id="path-197"></path>
        <path d="M667.1032,58.2402 C662.4276,58.2402 658.6311,62.0521 658.6311,66.7467 C658.6311,71.44136 662.4276,75.24674 667.1032,75.24674 C671.7788,75.24674 675.5688,71.44136 675.5688,66.7467 C675.5688,62.0521 671.7788,58.2402 667.1032,58.2402 L667.1032,58.2402 Z" id="path-199"></path>
        <path d="M688.8012,52.8002 C684.1191,52.8002 680.3291,56.6056 680.3291,61.3002 C680.3291,65.9948 684.1191,69.8067 688.8012,69.8067 C693.4768,69.8067 697.2668,65.9948 697.2668,61.3002 C697.2668,56.6056 693.4768,52.8002 688.8012,52.8002 L688.8012,52.8002 Z" id="path-201"></path>
        <path d="M689.8171,142.15482 C685.1349,142.15482 681.345,145.9602 681.345,150.65482 C681.345,155.34943 685.1349,159.16136 689.8171,159.16136 C694.4927,159.16136 698.2827,155.34943 698.2827,150.65482 C698.2827,145.9602 694.4927,142.15482 689.8171,142.15482 L689.8171,142.15482 Z" id="path-203"></path>
        <path d="M689.8171,119.68212 C685.1349,119.68212 681.345,123.49405 681.345,128.18866 C681.345,132.88328 685.1349,136.68866 689.8171,136.68866 C694.4927,136.68866 698.2827,132.88328 698.2827,128.18866 C698.2827,123.49405 694.4927,119.68212 689.8171,119.68212 L689.8171,119.68212 Z" id="path-205"></path>
        <path d="M689.8171,97.04597 C685.1349,97.04597 681.345,100.85789 681.345,105.54597 C681.345,110.24712 685.1349,114.05251 689.8171,114.05251 C694.4927,114.05251 698.2827,110.24712 698.2827,105.54597 C698.2827,100.85789 694.4927,97.04597 689.8171,97.04597 L689.8171,97.04597 Z" id="path-207"></path>
        <path d="M689.8171,74.91982 C685.1349,74.91982 681.345,78.7252 681.345,83.42636 C681.345,88.12097 685.1349,91.93289 689.8171,91.93289 C694.4927,91.93289 698.2827,88.12097 698.2827,83.42636 C698.2827,78.7252 694.4927,74.91982 689.8171,74.91982 L689.8171,74.91982 Z" id="path-209"></path>
        <path d="M667.4418,142.15482 C662.7597,142.15482 658.9697,145.9602 658.9697,150.65482 C658.9697,155.34943 662.7597,159.16136 667.4418,159.16136 C672.1175,159.16136 675.9074,155.34943 675.9074,150.65482 C675.9074,145.9602 672.1175,142.15482 667.4418,142.15482 L667.4418,142.15482 Z" id="path-211"></path>
        <path d="M667.4418,121.38866 C662.7597,121.38866 658.9697,125.19405 658.9697,129.88866 C658.9697,134.58328 662.7597,138.3952 667.4418,138.3952 C672.1175,138.3952 675.9074,134.58328 675.9074,129.88866 C675.9074,125.19405 672.1175,121.38866 667.4418,121.38866 L667.4418,121.38866 Z" id="path-213"></path>
        <path d="M667.4418,99.94251 C662.7597,99.94251 658.9697,103.74789 658.9697,108.44905 C658.9697,113.14366 662.7597,116.94905 667.4418,116.94905 C672.1175,116.94905 675.9074,113.14366 675.9074,108.44905 C675.9074,103.74789 672.1175,99.94251 667.4418,99.94251 L667.4418,99.94251 Z" id="path-215"></path>
        <path d="M667.4418,79.17636 C662.7597,79.17636 658.9697,82.98174 658.9697,87.67636 C658.9697,92.37751 662.7597,96.18289 667.4418,96.18289 C672.1175,96.18289 675.9074,92.37751 675.9074,87.67636 C675.9074,82.98174 672.1175,79.17636 667.4418,79.17636 L667.4418,79.17636 Z" id="path-217"></path>
        <path d="M658.9632,39.5206 C654.2876,39.5206 650.4976,43.326 650.4976,48.0271 C650.4976,52.7217 654.2876,56.5271 658.9632,56.5271 C663.6388,56.5271 667.4353,52.7217 667.4353,48.0271 C667.4353,43.326 663.6388,39.5206 658.9632,39.5206 L658.9632,39.5206 Z" id="path-219"></path>
        <path d="M620.8224,27.6075 C616.1468,27.6075 612.3568,31.4129 612.3568,36.114 C612.3568,40.8021 616.1468,44.614 620.8224,44.614 C625.4981,44.614 629.2945,40.8021 629.2945,36.114 C629.2945,31.4129 625.4981,27.6075 620.8224,27.6075 L620.8224,27.6075 Z" id="path-221"></path>
        <path d="M560.4757,6.3314 C555.8001,6.3314 552.0101,10.1367 552.0101,14.8314 C552.0101,19.5325 555.8001,23.3379 560.4757,23.3379 C565.1579,23.3379 568.9478,19.5325 568.9478,14.8314 C568.9478,10.1367 565.1579,6.3314 560.4757,6.3314 L560.4757,6.3314 Z" id="path-223"></path>
        <path d="M582.6882,6.3314 C578.006,6.3314 574.2161,10.1367 574.2161,14.8314 C574.2161,19.5325 578.006,23.3379 582.6882,23.3379 C587.3638,23.3379 591.1538,19.5325 591.1538,14.8314 C591.1538,10.1367 587.3638,6.3314 582.6882,6.3314 L582.6882,6.3314 Z" id="path-225"></path>
        <path d="M499.1978,74.45559 C494.5157,74.45559 490.7257,78.26097 490.7257,82.95559 C490.7257,87.6502 494.5157,91.46212 499.1978,91.46212 C503.8669,91.46212 507.6634,87.6502 507.6634,82.95559 C507.6634,78.26097 503.8669,74.45559 499.1978,74.45559 L499.1978,74.45559 Z" id="path-227"></path>
        <path d="M517.6333,97.30097 C512.9512,97.30097 509.1612,101.10636 509.1612,105.80751 C509.1612,110.50212 512.9512,114.30751 517.6333,114.30751 C522.3024,114.30751 526.0989,110.50212 526.0989,105.80751 C526.0989,101.10636 522.3024,97.30097 517.6333,97.30097 L517.6333,97.30097 Z" id="path-229"></path>
        <path d="M494.2357,96.28097 C489.5601,96.28097 485.7701,100.08636 485.7701,104.78751 C485.7701,109.47559 489.5601,113.28751 494.2357,113.28751 C498.9113,113.28751 502.7078,109.47559 502.7078,104.78751 C502.7078,100.08636 498.9113,96.28097 494.2357,96.28097 L494.2357,96.28097 Z" id="path-231"></path>
        <path d="M507.5853,117.21712 C502.9097,117.21712 499.1132,121.02251 499.1132,125.71712 C499.1132,130.41174 502.9097,134.22366 507.5853,134.22366 C512.2609,134.22366 516.0509,130.41174 516.0509,125.71712 C516.0509,121.02251 512.2609,117.21712 507.5853,117.21712 L507.5853,117.21712 Z" id="path-233"></path>
        <path d="M491.696,133.68097 C487.0139,133.68097 483.2239,137.48636 483.2239,142.18751 C483.2239,146.88212 487.0139,150.68751 491.696,150.68751 C496.3716,150.68751 500.1616,146.88212 500.1616,142.18751 C500.1616,137.48636 496.3716,133.68097 491.696,133.68097 L491.696,133.68097 Z" id="path-235"></path>
        <path d="M479.8702,113.89559 C475.1946,113.89559 471.4046,117.70097 471.4046,122.40212 C471.4046,127.09674 475.1946,130.90212 479.8702,130.90212 C484.5458,130.90212 488.3358,127.09674 488.3358,122.40212 C488.3358,117.70097 484.5458,113.89559 479.8702,113.89559 L479.8702,113.89559 Z" id="path-237"></path>
        <path d="M470.9683,144.11636 C466.2927,144.11636 462.5027,147.92828 462.5027,152.62289 C462.5027,157.31751 466.2927,161.129432 470.9683,161.129432 C475.6504,161.129432 479.4404,157.31751 479.4404,152.62289 C479.4404,147.92828 475.6504,144.11636 470.9683,144.11636 L470.9683,144.11636 Z" id="path-239"></path>
        <path d="M459.6569,123.97789 C454.9813,123.97789 451.1848,127.78982 451.1848,132.48443 C451.1848,137.17905 454.9813,140.98443 459.6569,140.98443 C464.3326,140.98443 468.1225,137.17905 468.1225,132.48443 C468.1225,127.78982 464.3326,123.97789 459.6569,123.97789 L459.6569,123.97789 Z" id="path-241"></path>
        <path d="M436.8975,124.23289 C432.2219,124.23289 428.4319,128.03828 428.4319,132.73943 C428.4319,137.43405 432.2219,141.23943 436.8975,141.23943 C441.5731,141.23943 445.3696,137.43405 445.3696,132.73943 C445.3696,128.03828 441.5731,124.23289 436.8975,124.23289 L436.8975,124.23289 Z" id="path-243"></path>
        <path d="M425.9639,144.01828 C421.2882,144.01828 417.4917,147.8302 417.4917,152.52482 C417.4917,157.21943 421.2882,161.024817 425.9639,161.024817 C430.646,161.024817 434.436,157.21943 434.436,152.52482 C434.436,147.8302 430.646,144.01828 425.9639,144.01828 L425.9639,144.01828 Z" id="path-245"></path>
        <path d="M405.8743,133.93597 C401.1987,133.93597 397.4087,137.74136 397.4087,142.44251 C397.4087,147.13712 401.1987,150.94251 405.8743,150.94251 C410.5565,150.94251 414.3465,147.13712 414.3465,142.44251 C414.3465,137.74136 410.5565,133.93597 405.8743,133.93597 L405.8743,133.93597 Z" id="path-247"></path>
        <path d="M389.7311,117.59636 C385.0555,117.59636 381.2655,121.40174 381.2655,126.10289 C381.2655,130.79751 385.0555,134.60289 389.7311,134.60289 C394.4132,134.60289 398.2032,130.79751 398.2032,126.10289 C398.2032,121.40174 394.4132,117.59636 389.7311,117.59636 L389.7311,117.59636 Z" id="path-249"></path>
        <path d="M416.6843,114.66059 C412.0086,114.66059 408.2187,118.46597 408.2187,123.16712 C408.2187,127.86174 412.0086,131.66712 416.6843,131.66712 C421.3599,131.66712 425.1564,127.86174 425.1564,123.16712 C425.1564,118.46597 421.3599,114.66059 416.6843,114.66059 L416.6843,114.66059 Z" id="path-251"></path>
        <path d="M448.2154,147.71905 C443.5332,147.71905 439.7433,151.52443 439.7433,156.22559 C439.7433,160.920201 443.5332,164.725586 448.2154,164.725586 C452.891,164.725586 456.681,160.920201 456.681,156.22559 C456.681,151.52443 452.891,147.71905 448.2154,147.71905 L448.2154,147.71905 Z" id="path-253"></path>
        <path d="M319.8052,74.32482 C315.1296,74.32482 311.3396,78.13674 311.3396,82.83136 C311.3396,87.53251 315.1296,91.33789 319.8052,91.33789 C324.4809,91.33789 328.2773,87.53251 328.2773,82.83136 C328.2773,78.13674 324.4809,74.32482 319.8052,74.32482 L319.8052,74.32482 Z" id="path-255"></path>
        <path d="M314.2114,52.6302 C309.5358,52.6302 305.7393,56.4356 305.7393,61.1302 C305.7393,65.8248 309.5358,69.6302 314.2114,69.6302 C318.887,69.6302 322.6835,65.8248 322.6835,61.1302 C322.6835,56.4356 318.887,52.6302 314.2114,52.6302 L314.2114,52.6302 Z" id="path-257"></path>
        <path d="M300.7381,34.499 C296.056,34.499 292.266,38.311 292.266,43.0056 C292.266,47.7002 296.056,51.5056 300.7381,51.5056 C305.4137,51.5056 309.2037,47.7002 309.2037,43.0056 C309.2037,38.311 305.4137,34.499 300.7381,34.499 L300.7381,34.499 Z" id="path-259"></path>
        <path d="M311.9257,14.7137 C307.2436,14.7137 303.4536,18.5256 303.4536,23.2202 C303.4536,27.9148 307.2436,31.7267 311.9257,31.7267 C316.6013,31.7267 320.3913,27.9148 320.3913,23.2202 C320.3913,18.5256 316.6013,14.7137 311.9257,14.7137 L311.9257,14.7137 Z" id="path-261"></path>
        <path d="M291.706,4.6314 C287.0303,4.6314 283.2404,8.4367 283.2404,13.1314 C283.2404,17.8325 287.0303,21.6379 291.706,21.6379 C296.3881,21.6379 300.1781,17.8325 300.1781,13.1314 C300.1781,8.4367 296.3881,4.6314 291.706,4.6314 L291.706,4.6314 Z" id="path-263"></path>
        <path d="M280.2709,24.5475 C275.5888,24.5475 271.7988,28.3529 271.7988,33.0475 C271.7988,37.7421 275.5888,41.554 280.2709,41.554 C284.9465,41.554 288.7365,37.7421 288.7365,33.0475 C288.7365,28.3529 284.9465,24.5475 280.2709,24.5475 L280.2709,24.5475 Z" id="path-265"></path>
        <path d="M327.9387,31.3083 C323.2631,31.3083 319.4731,35.1202 319.4731,39.8148 C319.4731,44.5094 323.2631,48.3148 327.9387,48.3148 C332.6209,48.3148 336.4108,44.5094 336.4108,39.8148 C336.4108,35.1202 332.6209,31.3083 327.9387,31.3083 L327.9387,31.3083 Z" id="path-267"></path>
        <path d="M338.2407,51.6037 C333.5586,51.6037 329.7686,55.4156 329.7686,60.1102 C329.7686,64.8048 333.5586,68.6102 338.2407,68.6102 C342.9163,68.6102 346.7128,64.8048 346.7128,60.1102 C346.7128,55.4156 342.9163,51.6037 338.2407,51.6037 L338.2407,51.6037 Z" id="path-269"></path>
        <path d="M217.9641,74.38366 C213.2885,74.38366 209.4985,78.18905 209.4985,82.8902 C209.4985,87.58482 213.2885,91.3902 217.9641,91.3902 C222.6462,91.3902 226.4362,87.58482 226.4362,82.8902 C226.4362,78.18905 222.6462,74.38366 217.9641,74.38366 L217.9641,74.38366 Z" id="path-271"></path>
        <path d="M153.9446,100.55712 C149.269,100.55712 145.479,104.36251 145.479,109.05712 C145.479,113.75174 149.269,117.56366 153.9446,117.56366 C158.6267,117.56366 162.4167,113.75174 162.4167,109.05712 C162.4167,104.36251 158.6267,100.55712 153.9446,100.55712 L153.9446,100.55712 Z" id="path-273"></path>
        <path d="M154.1139,121.68289 C149.4383,121.68289 145.6483,125.48828 145.6483,130.18289 C145.6483,134.87751 149.4383,138.68943 154.1139,138.68943 C158.7895,138.68943 162.586,134.87751 162.586,130.18289 C162.586,125.48828 158.7895,121.68289 154.1139,121.68289 L154.1139,121.68289 Z" id="path-275"></path>
        <path d="M154.1139,142.04366 C149.4383,142.04366 145.6483,145.84905 145.6483,150.54366 C145.6483,155.24482 149.4383,159.0502 154.1139,159.0502 C158.7895,159.0502 162.586,155.24482 162.586,150.54366 C162.586,145.84905 158.7895,142.04366 154.1139,142.04366 L154.1139,142.04366 Z" id="path-277"></path>
        <path d="M152.2515,57.5733 C147.5693,57.5733 143.7794,61.3852 143.7794,66.0798 C143.7794,70.78097 147.5693,74.58636 152.2515,74.58636 C156.9336,74.58636 160.7236,70.78097 160.7236,66.0798 C160.7236,61.3852 156.9336,57.5733 152.2515,57.5733 L152.2515,57.5733 Z" id="path-279"></path>
        <path d="M91.22752,27.4506 C86.55191,27.4506 82.75541,31.2625 82.75541,35.9571 C82.75541,40.6517 86.55191,44.4637 91.22752,44.4637 C95.9097,44.4637 99.6996,40.6517 99.6996,35.9571 C99.6996,31.2625 95.9097,27.4506 91.22752,27.4506 L91.22752,27.4506 Z" id="path-281"></path>
        <path d="M8.97445,7.456 C4.298836,7.456 0.508852,11.2614 0.508852,15.956 C0.508852,20.6571 4.298836,24.4625 8.97445,24.4625 C13.65007,24.4625 17.44656,20.6571 17.44656,15.956 C17.44656,11.2614 13.65007,7.456 8.97445,7.456 L8.97445,7.456 Z" id="path-283"></path>
        <path d="M31.16735,97.65405 C26.49173,97.65405 22.70175,101.46597 22.70175,106.16059 C22.70175,110.86174 26.49173,114.66712 31.16735,114.66712 C35.84948,114.66712 39.63946,110.86174 39.63946,106.16059 C39.63946,101.46597 35.84948,97.65405 31.16735,97.65405 L31.16735,97.65405 Z" id="path-285"></path>
        <path d="M8.97445,97.65405 C4.298836,97.65405 0.508852,101.46597 0.508852,106.16059 C0.508852,110.86174 4.298836,114.66712 8.97445,114.66712 C13.65007,114.66712 17.44656,110.86174 17.44656,106.16059 C17.44656,101.46597 13.65007,97.65405 8.97445,97.65405 L8.97445,97.65405 Z" id="path-287"></path>
        <path d="M31.16735,119.95674 C26.49173,119.95674 22.70175,123.76212 22.70175,128.46328 C22.70175,133.15789 26.49173,136.96328 31.16735,136.96328 C35.84948,136.96328 39.63946,133.15789 39.63946,128.46328 C39.63946,123.76212 35.84948,119.95674 31.16735,119.95674 L31.16735,119.95674 Z" id="path-289"></path>
        <path d="M8.97445,119.95674 C4.298836,119.95674 0.508852,123.76212 0.508852,128.46328 C0.508852,133.15789 4.298836,136.96328 8.97445,136.96328 C13.65007,136.96328 17.44656,133.15789 17.44656,128.46328 C17.44656,123.76212 13.65007,119.95674 8.97445,119.95674 L8.97445,119.95674 Z" id="path-291"></path>
        <path d="M31.16735,142.25289 C26.49173,142.25289 22.70175,146.05828 22.70175,150.75289 C22.70175,155.45405 26.49173,159.25943 31.16735,159.25943 C35.84948,159.25943 39.63946,155.45405 39.63946,150.75289 C39.63946,146.05828 35.84948,142.25289 31.16735,142.25289 L31.16735,142.25289 Z" id="path-293"></path>
        <path d="M8.97445,142.25289 C4.298836,142.25289 0.508852,146.05828 0.508852,150.75289 C0.508852,155.45405 4.298836,159.25943 8.97445,159.25943 C13.65007,159.25943 17.44656,155.45405 17.44656,150.75289 C17.44656,146.05828 13.65007,142.25289 8.97445,142.25289 L8.97445,142.25289 Z" id="path-295"></path>
    </defs>
    <g id="Artboard" stroke="none" stroke-width="1" fill="none" fill-rule="evenodd">
        <g id="logo" transform="translate(0.000000, -1.000000)">
            <path d="M31.16735,75.36443 C26.49173,75.36443 22.70175,79.16982 22.70175,83.87097 C22.70175,88.55905 26.49173,92.37097 31.16735,92.37097 C35.84948,92.37097 39.63946,88.55905 39.63946,83.87097 C39.63946,79.16982 35.84948,75.36443 31.16735,75.36443 L31.16735,75.36443 Z" id="Clip-2" fill="#497ECE"></path>
            <path d="M8.97445,75.36443 C4.298836,75.36443 0.508852,79.16982 0.508852,83.87097 C0.508852,88.55905 4.298836,92.37097 8.97445,92.37097 C13.65007,92.37097 17.44656,88.55905 17.44656,83.87097 C17.44656,79.16982 13.65007,75.36443 8.97445,75.36443 L8.97445,75.36443 Z" id="Clip-5" fill="#497ECE"></path>
            <path d="M31.16735,52.7283 C26.49173,52.7283 22.70175,56.5337 22.70175,61.2348 C22.70175,65.9229 26.49173,69.7283 31.16735,69.7283 C35.84948,69.7283 39.63946,65.9229 39.63946,61.2348 C39.63946,56.5337 35.84948,52.7283 31.16735,52.7283 L31.16735,52.7283 Z" id="Clip-8" fill="#497ECE"></path>
            <path d="M8.97445,52.7283 C4.298836,52.7283 0.508852,56.5337 0.508852,61.2348 C0.508852,65.9229 4.298836,69.7283 8.97445,69.7283 C13.65007,69.7283 17.44656,65.9229 17.44656,61.2348 C17.44656,56.5337 13.65007,52.7283 8.97445,52.7283 L8.97445,52.7283 Z" id="Clip-11" fill="#497ECE"></path>
            <path d="M31.16735,30.0921 C26.49173,30.0921 22.70175,33.8975 22.70175,38.5921 C22.70175,43.2933 26.49173,47.0987 31.16735,47.0987 C35.84948,47.0987 39.63946,43.2933 39.63946,38.5921 C39.63946,33.8975 35.84948,30.0921 31.16735,30.0921 L31.16735,30.0921 Z" id="Clip-14" fill="#497ECE"></path>
            <path d="M8.97445,30.0921 C4.298836,30.0921 0.508852,33.8975 0.508852,38.5921 C0.508852,43.2933 4.298836,47.0987 8.97445,47.0987 C13.65007,47.0987 17.44656,43.2933 17.44656,38.5921 C17.44656,33.8975 13.65007,30.0921 8.97445,30.0921 L8.97445,30.0921 Z" id="Clip-17" fill="#497ECE"></path>
            <path d="M31.16735,7.456 C26.49173,7.456 22.70175,11.2614 22.70175,15.956 C22.70175,20.6571 26.49173,24.4625 31.16735,24.4625 C35.84948,24.4625 39.63946,20.6571 39.63946,15.956 C39.63946,11.2614 35.84948,7.456 31.16735,7.456 L31.16735,7.456 Z" id="Clip-20" fill="#497ECE"></path>
            <mask id="mask-2" fill="white">
                <use xlink:href="#path-1"></use>
            </mask>
            <use id="Clip-23" fill="#497ECE" xlink:href="#path-1"></use>
            <mask id="mask-4" fill="white">
                <use xlink:href="#path-3"></use>
            </mask>
            <use id="Clip-26" fill="#497ECE" xlink:href="#path-3"></use>
            <mask id="mask-6" fill="white">
                <use xlink:href="#path-5"></use>
            </mask>
            <use id="Clip-29" fill="#497ECE" xlink:href="#path-5"></use>
            <mask id="mask-8" fill="white">
                <use xlink:href="#path-7"></use>
            </mask>
            <use id="Clip-32" fill="#497ECE" xlink:href="#path-7"></use>
            <mask id="mask-10" fill="white">
                <use xlink:href="#path-9"></use>
            </mask>
            <use id="Clip-35" fill="#497ECE" xlink:href="#path-9"></use>
            <mask id="mask-12" fill="white">
                <use xlink:href="#path-11"></use>
            </mask>
            <use id="Clip-38" fill="#497ECE" xlink:href="#path-11"></use>
            <mask id="mask-14" fill="white">
                <use xlink:href="#path-13"></use>
            </mask>
            <use id="Clip-41" fill="#497ECE" xlink:href="#path-13"></use>
            <mask id="mask-16" fill="white">
                <use xlink:href="#path-15"></use>
            </mask>
            <use id="Clip-44" fill="#497ECE" xlink:href="#path-15"></use>
            <mask id="mask-18" fill="white">
                <use xlink:href="#path-17"></use>
            </mask>
            <use id="Clip-47" fill="#497ECE" xlink:href="#path-17"></use>
            <mask id="mask-20" fill="white">
                <use xlink:href="#path-19"></use>
            </mask>
            <use id="Clip-50" fill="#497ECE" xlink:href="#path-19"></use>
            <mask id="mask-22" fill="white">
                <use xlink:href="#path-21"></use>
            </mask>
            <use id="Clip-53" fill="#497ECE" xlink:href="#path-21"></use>
            <mask id="mask-24" fill="white">
                <use xlink:href="#path-23"></use>
            </mask>
            <use id="Clip-56" fill="#497ECE" xlink:href="#path-23"></use>
            <mask id="mask-26" fill="white">
                <use xlink:href="#path-25"></use>
            </mask>
            <use id="Clip-59" fill="#497ECE" xlink:href="#path-25"></use>
            <mask id="mask-28" fill="white">
                <use xlink:href="#path-27"></use>
            </mask>
            <use id="Clip-62" fill="#497ECE" xlink:href="#path-27"></use>
            <mask id="mask-30" fill="white">
                <use xlink:href="#path-29"></use>
            </mask>
            <use id="Clip-65" fill="#497ECE" xlink:href="#path-29"></use>
            <mask id="mask-32" fill="white">
                <use xlink:href="#path-31"></use>
            </mask>
            <use id="Clip-68" fill="#497ECE" xlink:href="#path-31"></use>
            <mask id="mask-34" fill="white">
                <use xlink:href="#path-33"></use>
            </mask>
            <use id="Clip-71" fill="#497ECE" xlink:href="#path-33"></use>
            <mask id="mask-36" fill="white">
                <use xlink:href="#path-35"></use>
            </mask>
            <use id="Clip-74" fill="#497ECE" xlink:href="#path-35"></use>
            <mask id="mask-38" fill="white">
                <use xlink:href="#path-37"></use>
            </mask>
            <use id="Clip-77" fill="#497ECE" xlink:href="#path-37"></use>
            <mask id="mask-40" fill="white">
                <use xlink:href="#path-39"></use>
            </mask>
            <use id="Clip-80" fill="#497ECE" xlink:href="#path-39"></use>
            <mask id="mask-42" fill="white">
                <use xlink:href="#path-41"></use>
            </mask>
            <use id="Clip-83" fill="#497ECE" xlink:href="#path-41"></use>
            <mask id="mask-44" fill="white">
                <use xlink:href="#path-43"></use>
            </mask>
            <use id="Clip-86" fill="#497ECE" xlink:href="#path-43"></use>
            <mask id="mask-46" fill="white">
                <use xlink:href="#path-45"></use>
            </mask>
            <use id="Clip-89" fill="#497ECE" xlink:href="#path-45"></use>
            <mask id="mask-48" fill="white">
                <use xlink:href="#path-47"></use>
            </mask>
            <use id="Clip-92" fill="#497ECE" xlink:href="#path-47"></use>
            <mask id="mask-50" fill="white">
                <use xlink:href="#path-49"></use>
            </mask>
            <use id="Clip-95" fill="#497ECE" xlink:href="#path-49"></use>
            <mask id="mask-52" fill="white">
                <use xlink:href="#path-51"></use>
            </mask>
            <use id="Clip-98" fill="#497ECE" xlink:href="#path-51"></use>
            <mask id="mask-54" fill="white">
                <use xlink:href="#path-53"></use>
            </mask>
            <use id="Clip-101" fill="#497ECE" xlink:href="#path-53"></use>
            <mask id="mask-56" fill="white">
                <use xlink:href="#path-55"></use>
            </mask>
            <use id="Clip-104" fill="#497ECE" xlink:href="#path-55"></use>
            <mask id="mask-58" fill="white">
                <use xlink:href="#path-57"></use>
            </mask>
            <use id="Clip-107" fill="#497ECE" xlink:href="#path-57"></use>
            <mask id="mask-60" fill="white">
                <use xlink:href="#path-59"></use>
            </mask>
            <use id="Clip-110" fill="#497ECE" xlink:href="#path-59"></use>
            <mask id="mask-62" fill="white">
                <use xlink:href="#path-61"></use>
            </mask>
            <use id="Clip-113" fill="#497ECE" xlink:href="#path-61"></use>
            <mask id="mask-64" fill="white">
                <use xlink:href="#path-63"></use>
            </mask>
            <use id="Clip-116" fill="#497ECE" xlink:href="#path-63"></use>
            <mask id="mask-66" fill="white">
                <use xlink:href="#path-65"></use>
            </mask>
            <use id="Clip-119" fill="#497ECE" xlink:href="#path-65"></use>
            <mask id="mask-68" fill="white">
                <use xlink:href="#path-67"></use>
            </mask>
            <use id="Clip-122" fill="#497ECE" xlink:href="#path-67"></use>
            <mask id="mask-70" fill="white">
                <use xlink:href="#path-69"></use>
            </mask>
            <use id="Clip-125" fill="#497ECE" xlink:href="#path-69"></use>
            <mask id="mask-72" fill="white">
                <use xlink:href="#path-71"></use>
            </mask>
            <use id="Clip-128" fill="#497ECE" xlink:href="#path-71"></use>
            <mask id="mask-74" fill="white">
                <use xlink:href="#path-73"></use>
            </mask>
            <use id="Clip-131" fill="#497ECE" xlink:href="#path-73"></use>
            <mask id="mask-76" fill="white">
                <use xlink:href="#path-75"></use>
            </mask>
            <use id="Clip-134" fill="#497ECE" xlink:href="#path-75"></use>
            <mask id="mask-78" fill="white">
                <use xlink:href="#path-77"></use>
            </mask>
            <use id="Clip-137" fill="#497ECE" xlink:href="#path-77"></use>
            <mask id="mask-80" fill="white">
                <use xlink:href="#path-79"></use>
            </mask>
            <use id="Clip-140" fill="#497ECE" xlink:href="#path-79"></use>
            <mask id="mask-82" fill="white">
                <use xlink:href="#path-81"></use>
            </mask>
            <use id="Clip-143" fill="#497ECE" xlink:href="#path-81"></use>
            <mask id="mask-84" fill="white">
                <use xlink:href="#path-83"></use>
            </mask>
            <use id="Clip-146" fill="#497ECE" xlink:href="#path-83"></use>
            <mask id="mask-86" fill="white">
                <use xlink:href="#path-85"></use>
            </mask>
            <use id="Clip-149" fill="#497ECE" xlink:href="#path-85"></use>
            <mask id="mask-88" fill="white">
                <use xlink:href="#path-87"></use>
            </mask>
            <use id="Clip-152" fill="#497ECE" xlink:href="#path-87"></use>
            <mask id="mask-90" fill="white">
                <use xlink:href="#path-89"></use>
            </mask>
            <use id="Clip-155" fill="#497ECE" xlink:href="#path-89"></use>
            <mask id="mask-92" fill="white">
                <use xlink:href="#path-91"></use>
            </mask>
            <use id="Clip-158" fill="#497ECE" xlink:href="#path-91"></use>
            <mask id="mask-94" fill="white">
                <use xlink:href="#path-93"></use>
            </mask>
            <use id="Clip-161" fill="#497ECE" xlink:href="#path-93"></use>
            <mask id="mask-96" fill="white">
                <use xlink:href="#path-95"></use>
            </mask>
            <use id="Clip-164" fill="#497ECE" xlink:href="#path-95"></use>
            <mask id="mask-98" fill="white">
                <use xlink:href="#path-97"></use>
            </mask>
            <use id="Clip-167" fill="#497ECE" xlink:href="#path-97"></use>
            <mask id="mask-100" fill="white">
                <use xlink:href="#path-99"></use>
            </mask>
            <use id="Clip-170" fill="#497ECE" xlink:href="#path-99"></use>
            <mask id="mask-102" fill="white">
                <use xlink:href="#path-101"></use>
            </mask>
            <use id="Clip-173" fill="#497ECE" xlink:href="#path-101"></use>
            <mask id="mask-104" fill="white">
                <use xlink:href="#path-103"></use>
            </mask>
            <use id="Clip-176" fill="#497ECE" xlink:href="#path-103"></use>
            <mask id="mask-106" fill="white">
                <use xlink:href="#path-105"></use>
            </mask>
            <use id="Clip-179" fill="#497ECE" xlink:href="#path-105"></use>
            <mask id="mask-108" fill="white">
                <use xlink:href="#path-107"></use>
            </mask>
            <use id="Clip-182" fill="#497ECE" xlink:href="#path-107"></use>
            <mask id="mask-110" fill="white">
                <use xlink:href="#path-109"></use>
            </mask>
            <use id="Clip-185" fill="#497ECE" xlink:href="#path-109"></use>
            <mask id="mask-112" fill="white">
                <use xlink:href="#path-111"></use>
            </mask>
            <use id="Clip-188" fill="#497ECE" xlink:href="#path-111"></use>
            <mask id="mask-114" fill="white">
                <use xlink:href="#path-113"></use>
            </mask>
            <use id="Clip-191" fill="#497ECE" xlink:href="#path-113"></use>
            <mask id="mask-116" fill="white">
                <use xlink:href="#path-115"></use>
            </mask>
            <use id="Clip-194" fill="#497ECE" xlink:href="#path-115"></use>
            <mask id="mask-118" fill="white">
                <use xlink:href="#path-117"></use>
            </mask>
            <use id="Clip-197" fill="#497ECE" xlink:href="#path-117"></use>
            <mask id="mask-120" fill="white">
                <use xlink:href="#path-119"></use>
            </mask>
            <use id="Clip-200" fill="#497ECE" xlink:href="#path-119"></use>
            <mask id="mask-122" fill="white">
                <use xlink:href="#path-121"></use>
            </mask>
            <use id="Clip-203" fill="#497ECE" xlink:href="#path-121"></use>
            <mask id="mask-124" fill="white">
                <use xlink:href="#path-123"></use>
            </mask>
            <use id="Clip-206" fill="#497ECE" xlink:href="#path-123"></use>
            <mask id="mask-126" fill="white">
                <use xlink:href="#path-125"></use>
            </mask>
            <use id="Clip-209" fill="#497ECE" xlink:href="#path-125"></use>
            <mask id="mask-128" fill="white">
                <use xlink:href="#path-127"></use>
            </mask>
            <use id="Clip-212" fill="#497ECE" xlink:href="#path-127"></use>
            <mask id="mask-130" fill="white">
                <use xlink:href="#path-129"></use>
            </mask>
            <use id="Clip-215" fill="#497ECE" xlink:href="#path-129"></use>
            <mask id="mask-132" fill="white">
                <use xlink:href="#path-131"></use>
            </mask>
            <use id="Clip-218" fill="#497ECE" xlink:href="#path-131"></use>
            <mask id="mask-134" fill="white">
                <use xlink:href="#path-133"></use>
            </mask>
            <use id="Clip-221" fill="#497ECE" xlink:href="#path-133"></use>
            <mask id="mask-136" fill="white">
                <use xlink:href="#path-135"></use>
            </mask>
            <use id="Clip-224" fill="#497ECE" xlink:href="#path-135"></use>
            <mask id="mask-138" fill="white">
                <use xlink:href="#path-137"></use>
            </mask>
            <use id="Clip-227" fill="#497ECE" xlink:href="#path-137"></use>
            <mask id="mask-140" fill="white">
                <use xlink:href="#path-139"></use>
            </mask>
            <use id="Clip-230" fill="#497ECE" xlink:href="#path-139"></use>
            <mask id="mask-142" fill="white">
                <use xlink:href="#path-141"></use>
            </mask>
            <use id="Clip-233" fill="#497ECE" xlink:href="#path-141"></use>
            <mask id="mask-144" fill="white">
                <use xlink:href="#path-143"></use>
            </mask>
            <use id="Clip-236" fill="#497ECE" xlink:href="#path-143"></use>
            <mask id="mask-146" fill="white">
                <use xlink:href="#path-145"></use>
            </mask>
            <use id="Clip-239" fill="#497ECE" xlink:href="#path-145"></use>
            <mask id="mask-148" fill="white">
                <use xlink:href="#path-147"></use>
            </mask>
            <use id="Clip-242" fill="#497ECE" xlink:href="#path-147"></use>
            <mask id="mask-150" fill="white">
                <use xlink:href="#path-149"></use>
            </mask>
            <use id="Clip-245" fill="#497ECE" xlink:href="#path-149"></use>
            <mask id="mask-152" fill="white">
                <use xlink:href="#path-151"></use>
            </mask>
            <use id="Clip-248" fill="#497ECE" xlink:href="#path-151"></use>
            <mask id="mask-154" fill="white">
                <use xlink:href="#path-153"></use>
            </mask>
            <use id="Clip-251" fill="#497ECE" xlink:href="#path-153"></use>
            <mask id="mask-156" fill="white">
                <use xlink:href="#path-155"></use>
            </mask>
            <use id="Clip-254" fill="#497ECE" xlink:href="#path-155"></use>
            <mask id="mask-158" fill="white">
                <use xlink:href="#path-157"></use>
            </mask>
            <use id="Clip-257" fill="#497ECE" xlink:href="#path-157"></use>
            <mask id="mask-160" fill="white">
                <use xlink:href="#path-159"></use>
            </mask>
            <use id="Clip-260" fill="#497ECE" xlink:href="#path-159"></use>
            <mask id="mask-162" fill="white">
                <use xlink:href="#path-161"></use>
            </mask>
            <use id="Clip-263" fill="#497ECE" xlink:href="#path-161"></use>
            <mask id="mask-164" fill="white">
                <use xlink:href="#path-163"></use>
            </mask>
            <use id="Clip-266" fill="#497ECE" xlink:href="#path-163"></use>
            <mask id="mask-166" fill="white">
                <use xlink:href="#path-165"></use>
            </mask>
            <use id="Clip-269" fill="#497ECE" xlink:href="#path-165"></use>
            <mask id="mask-168" fill="white">
                <use xlink:href="#path-167"></use>
            </mask>
            <use id="Clip-272" fill="#497ECE" xlink:href="#path-167"></use>
            <mask id="mask-170" fill="white">
                <use xlink:href="#path-169"></use>
            </mask>
            <use id="Clip-275" fill="#497ECE" xlink:href="#path-169"></use>
            <mask id="mask-172" fill="white">
                <use xlink:href="#path-171"></use>
            </mask>
            <use id="Clip-278" fill="#497ECE" xlink:href="#path-171"></use>
            <mask id="mask-174" fill="white">
                <use xlink:href="#path-173"></use>
            </mask>
            <use id="Clip-281" fill="#497ECE" xlink:href="#path-173"></use>
            <mask id="mask-176" fill="white">
                <use xlink:href="#path-175"></use>
            </mask>
            <use id="Clip-284" fill="#497ECE" xlink:href="#path-175"></use>
            <mask id="mask-178" fill="white">
                <use xlink:href="#path-177"></use>
            </mask>
            <use id="Clip-287" fill="#497ECE" xlink:href="#path-177"></use>
            <mask id="mask-180" fill="white">
                <use xlink:href="#path-179"></use>
            </mask>
            <use id="Clip-290" fill="#497ECE" xlink:href="#path-179"></use>
            <mask id="mask-182" fill="white">
                <use xlink:href="#path-181"></use>
            </mask>
            <use id="Clip-293" fill="#497ECE" xlink:href="#path-181"></use>
            <mask id="mask-184" fill="white">
                <use xlink:href="#path-183"></use>
            </mask>
            <use id="Clip-296" fill="#497ECE" xlink:href="#path-183"></use>
            <mask id="mask-186" fill="white">
                <use xlink:href="#path-185"></use>
            </mask>
            <use id="Clip-299" fill="#497ECE" xlink:href="#path-185"></use>
            <mask id="mask-188" fill="white">
                <use xlink:href="#path-187"></use>
            </mask>
            <use id="Clip-302" fill="#497ECE" xlink:href="#path-187"></use>
            <mask id="mask-190" fill="white">
                <use xlink:href="#path-189"></use>
            </mask>
            <use id="Clip-305" fill="#497ECE" xlink:href="#path-189"></use>
            <mask id="mask-192" fill="white">
                <use xlink:href="#path-191"></use>
            </mask>
            <use id="Clip-308" fill="#497ECE" xlink:href="#path-191"></use>
            <mask id="mask-194" fill="white">
                <use xlink:href="#path-193"></use>
            </mask>
            <use id="Clip-311" fill="#497ECE" xlink:href="#path-193"></use>
            <mask id="mask-196" fill="white">
                <use xlink:href="#path-195"></use>
            </mask>
            <use id="Clip-314" fill="#497ECE" xlink:href="#path-195"></use>
            <mask id="mask-198" fill="white">
                <use xlink:href="#path-197"></use>
            </mask>
            <use id="Clip-317" fill="#497ECE" xlink:href="#path-197"></use>
            <mask id="mask-200" fill="white">
                <use xlink:href="#path-199"></use>
            </mask>
            <use id="Clip-320" fill="#497ECE" xlink:href="#path-199"></use>
            <mask id="mask-202" fill="white">
                <use xlink:href="#path-201"></use>
            </mask>
            <use id="Clip-323" fill="#497ECE" xlink:href="#path-201"></use>
            <mask id="mask-204" fill="white">
                <use xlink:href="#path-203"></use>
            </mask>
            <use id="Clip-326" fill="#497ECE" xlink:href="#path-203"></use>
            <mask id="mask-206" fill="white">
                <use xlink:href="#path-205"></use>
            </mask>
            <use id="Clip-329" fill="#497ECE" xlink:href="#path-205"></use>
            <mask id="mask-208" fill="white">
                <use xlink:href="#path-207"></use>
            </mask>
            <use id="Clip-332" fill="#497ECE" xlink:href="#path-207"></use>
            <mask id="mask-210" fill="white">
                <use xlink:href="#path-209"></use>
            </mask>
            <use id="Clip-335" fill="#497ECE" xlink:href="#path-209"></use>
            <mask id="mask-212" fill="white">
                <use xlink:href="#path-211"></use>
            </mask>
            <use id="Clip-338" fill="#497ECE" xlink:href="#path-211"></use>
            <mask id="mask-214" fill="white">
                <use xlink:href="#path-213"></use>
            </mask>
            <use id="Clip-341" fill="#497ECE" xlink:href="#path-213"></use>
            <mask id="mask-216" fill="white">
                <use xlink:href="#path-215"></use>
            </mask>
            <use id="Clip-344" fill="#497ECE" xlink:href="#path-215"></use>
            <mask id="mask-218" fill="white">
                <use xlink:href="#path-217"></use>
            </mask>
            <use id="Clip-347" fill="#497ECE" xlink:href="#path-217"></use>
            <mask id="mask-220" fill="white">
                <use xlink:href="#path-219"></use>
            </mask>
            <use id="Clip-350" fill="#497ECE" xlink:href="#path-219"></use>
            <mask id="mask-222" fill="white">
                <use xlink:href="#path-221"></use>
            </mask>
            <use id="Clip-353" fill="#497ECE" xlink:href="#path-221"></use>
            <mask id="mask-224" fill="white">
                <use xlink:href="#path-223"></use>
            </mask>
            <use id="Clip-356" fill="#497ECE" xlink:href="#path-223"></use>
            <mask id="mask-226" fill="white">
                <use xlink:href="#path-225"></use>
            </mask>
            <use id="Clip-359" fill="#497ECE" xlink:href="#path-225"></use>
            <mask id="mask-228" fill="white">
                <use xlink:href="#path-227"></use>
            </mask>
            <use id="Clip-362" fill="#497ECE" xlink:href="#path-227"></use>
            <mask id="mask-230" fill="white">
                <use xlink:href="#path-229"></use>
            </mask>
            <use id="Clip-365" fill="#497ECE" xlink:href="#path-229"></use>
            <mask id="mask-232" fill="white">
                <use xlink:href="#path-231"></use>
            </mask>
            <use id="Clip-368" fill="#497ECE" xlink:href="#path-231"></use>
            <mask id="mask-234" fill="white">
                <use xlink:href="#path-233"></use>
            </mask>
            <use id="Clip-371" fill="#497ECE" xlink:href="#path-233"></use>
            <mask id="mask-236" fill="white">
                <use xlink:href="#path-235"></use>
            </mask>
            <use id="Clip-374" fill="#497ECE" xlink:href="#path-235"></use>
            <mask id="mask-238" fill="white">
                <use xlink:href="#path-237"></use>
            </mask>
            <use id="Clip-377" fill="#497ECE" xlink:href="#path-237"></use>
            <mask id="mask-240" fill="white">
                <use xlink:href="#path-239"></use>
            </mask>
            <use id="Clip-380" fill="#497ECE" xlink:href="#path-239"></use>
            <mask id="mask-242" fill="white">
                <use xlink:href="#path-241"></use>
            </mask>
            <use id="Clip-383" fill="#497ECE" xlink:href="#path-241"></use>
            <mask id="mask-244" fill="white">
                <use xlink:href="#path-243"></use>
            </mask>
            <use id="Clip-386" fill="#497ECE" xlink:href="#path-243"></use>
            <mask id="mask-246" fill="white">
                <use xlink:href="#path-245"></use>
            </mask>
            <use id="Clip-389" fill="#497ECE" xlink:href="#path-245"></use>
            <mask id="mask-248" fill="white">
                <use xlink:href="#path-247"></use>
            </mask>
            <use id="Clip-392" fill="#497ECE" xlink:href="#path-247"></use>
            <mask id="mask-250" fill="white">
                <use xlink:href="#path-249"></use>
            </mask>
            <use id="Clip-395" fill="#497ECE" xlink:href="#path-249"></use>
            <mask id="mask-252" fill="white">
                <use xlink:href="#path-251"></use>
            </mask>
            <use id="Clip-398" fill="#497ECE" xlink:href="#path-251"></use>
            <mask id="mask-254" fill="white">
                <use xlink:href="#path-253"></use>
            </mask>
            <use id="Clip-401" fill="#497ECE" xlink:href="#path-253"></use>
            <mask id="mask-256" fill="white">
                <use xlink:href="#path-255"></use>
            </mask>
            <use id="Clip-404" fill="#497ECE" xlink:href="#path-255"></use>
            <mask id="mask-258" fill="white">
                <use xlink:href="#path-257"></use>
            </mask>
            <use id="Clip-407" fill="#497ECE" xlink:href="#path-257"></use>
            <mask id="mask-260" fill="white">
                <use xlink:href="#path-259"></use>
            </mask>
            <use id="Clip-410" fill="#497ECE" xlink:href="#path-259"></use>
            <mask id="mask-262" fill="white">
                <use xlink:href="#path-261"></use>
            </mask>
            <use id="Clip-413" fill="#497ECE" xlink:href="#path-261"></use>
            <mask id="mask-264" fill="white">
                <use xlink:href="#path-263"></use>
            </mask>
            <use id="Clip-416" fill="#497ECE" xlink:href="#path-263"></use>
            <mask id="mask-266" fill="white">
                <use xlink:href="#path-265"></use>
            </mask>
            <use id="Clip-419" fill="#497ECE" xlink:href="#path-265"></use>
            <mask id="mask-268" fill="white">
                <use xlink:href="#path-267"></use>
            </mask>
            <use id="Clip-422" fill="#497ECE" xlink:href="#path-267"></use>
            <mask id="mask-270" fill="white">
                <use xlink:href="#path-269"></use>
            </mask>
            <use id="Clip-425" fill="#497ECE" xlink:href="#path-269"></use>
            <mask id="mask-272" fill="white">
                <use xlink:href="#path-271"></use>
            </mask>
            <use id="Clip-428" fill="#497ECE" xlink:href="#path-271"></use>
            <mask id="mask-274" fill="white">
                <use xlink:href="#path-273"></use>
            </mask>
            <use id="Clip-431" fill="#497ECE" xlink:href="#path-273"></use>
            <mask id="mask-276" fill="white">
                <use xlink:href="#path-275"></use>
            </mask>
            <use id="Clip-434" fill="#497ECE" xlink:href="#path-275"></use>
            <mask id="mask-278" fill="white">
                <use xlink:href="#path-277"></use>
            </mask>
            <use id="Clip-437" fill="#497ECE" xlink:href="#path-277"></use>
            <mask id="mask-280" fill="white">
                <use xlink:href="#path-279"></use>
            </mask>
            <use id="Clip-440" fill="#497ECE" xlink:href="#path-279"></use>
            <mask id="mask-282" fill="white">
                <use xlink:href="#path-281"></use>
            </mask>
            <use id="Clip-443" fill="#497ECE" xlink:href="#path-281"></use>
            <mask id="mask-284" fill="white">
                <use xlink:href="#path-283"></use>
            </mask>
            <use id="Clip-446" fill="#497ECE" xlink:href="#path-283"></use>
            <mask id="mask-286" fill="white">
                <use xlink:href="#path-285"></use>
            </mask>
            <use id="Clip-449" fill="#497ECE" xlink:href="#path-285"></use>
            <mask id="mask-288" fill="white">
                <use xlink:href="#path-287"></use>
            </mask>
            <use id="Clip-452" fill="#497ECE" xlink:href="#path-287"></use>
            <mask id="mask-290" fill="white">
                <use xlink:href="#path-289"></use>
            </mask>
            <use id="Clip-455" fill="#497ECE" xlink:href="#path-289"></use>
            <mask id="mask-292" fill="white">
                <use xlink:href="#path-291"></use>
            </mask>
            <use id="Clip-458" fill="#497ECE" xlink:href="#path-291"></use>
            <mask id="mask-294" fill="white">
                <use xlink:href="#path-293"></use>
            </mask>
            <use id="Clip-461" fill="#497ECE" xlink:href="#path-293"></use>
            <mask id="mask-296" fill="white">
                <use xlink:href="#path-295"></use>
            </mask>
            <use id="Clip-464" fill="#497ECE" xlink:href="#path-295"></use>
        </g>
    </g>
</svg>