<svg width="472" height="460" viewBox="0 0 472 460" fill="none" xmlns="http://www.w3.org/2000/svg">
<path opacity="0.12" fill-rule="evenodd" clip-rule="evenodd" d="M171.193 12.7266L263.71 228.272L51.2122 138.628V12.7266H171.193V12.7266Z" fill="#FF8084"/>
<path opacity="0.12" fill-rule="evenodd" clip-rule="evenodd" d="M341.026 12.7266L250.71 232.272L461.303 140.965V12.7266H341.026V12.7266Z" fill="#FFFF00"/>
<path opacity="0.12" fill-rule="evenodd" clip-rule="evenodd" d="M168.608 421.818L261.71 206.272L51.2122 295.461V421.818H168.608V421.818Z" fill="#62DBD5"/>
<path opacity="0.12" fill-rule="evenodd" clip-rule="evenodd" d="M328.81 421.818L252.503 211.894L460.303 298.756V421.818H328.81Z" fill="#51CA6E"/>
<path opacity="0.12" fill-rule="evenodd" clip-rule="evenodd" d="M165.262 12.7266L255.71 217.272L343.453 12.7266H165.262Z" fill="#FFCC3C"/>
<path fill-rule="evenodd" clip-rule="evenodd" d="M165.262 421.818L255.71 217.272L343.453 421.818H165.262Z" fill="#81E7D5"/>
<path opacity="0.12" fill-rule="evenodd" clip-rule="evenodd" d="M51.2122 138.203L255.71 215.753L51.2122 292.909V138.203V138.203Z" fill="#B6C1D3"/>
<path opacity="0.12" fill-rule="evenodd" clip-rule="evenodd" d="M460.303 141.203L255.805 217.249L460.303 292.909V141.203Z" fill="#CCFF00"/>
<path d="M51.2122 11.4541V420.545H462.303" stroke="black" stroke-width="2"/>
<path d="M77.421 442.303V425.123H79.6945V440.275H88.1554V442.303H77.421ZM89.8195 436.08C89.8195 433.775 90.4601 432.068 91.7413 430.959C92.8116 430.037 94.1163 429.576 95.6554 429.576C97.3663 429.576 98.7648 430.139 99.8507 431.264C100.937 432.381 101.48 433.928 101.48 435.904C101.48 437.506 101.237 438.768 100.753 439.689C100.276 440.604 99.5773 441.314 98.6554 441.822C97.7413 442.33 96.7413 442.584 95.6554 442.584C93.9132 442.584 92.5031 442.025 91.4249 440.908C90.3546 439.791 89.8195 438.182 89.8195 436.08ZM91.9874 436.08C91.9874 437.674 92.3351 438.869 93.0304 439.666C93.7257 440.455 94.6007 440.85 95.6554 440.85C96.7023 440.85 97.5734 440.451 98.2687 439.654C98.964 438.857 99.3116 437.643 99.3116 436.01C99.3116 434.471 98.9601 433.307 98.257 432.518C97.5616 431.721 96.6945 431.322 95.6554 431.322C94.6007 431.322 93.7257 431.717 93.0304 432.506C92.3351 433.295 91.9874 434.486 91.9874 436.08ZM106.261 442.303L102.452 429.857H104.632L106.612 437.041L107.351 439.713C107.382 439.58 107.597 438.725 107.995 437.146L109.976 429.857H112.144L114.007 437.076L114.628 439.455L115.343 437.053L117.476 429.857H119.526L115.636 442.303H113.444L111.464 434.85L110.984 432.729L108.464 442.303H106.261Z" fill="black"/>
<path d="M392.979 442.303V425.123H395.252V432.178H404.182V425.123H406.456V442.303H404.182V434.205H395.252V442.303H392.979ZM409.995 427.549V425.123H412.104V427.549H409.995ZM409.995 442.303V429.857H412.104V442.303H409.995ZM414.94 443.334L416.991 443.639C417.077 444.271 417.315 444.732 417.706 445.021C418.229 445.412 418.944 445.607 419.85 445.607C420.827 445.607 421.581 445.412 422.112 445.021C422.643 444.631 423.002 444.084 423.19 443.381C423.299 442.951 423.35 442.049 423.342 440.674C422.42 441.76 421.272 442.303 419.897 442.303C418.186 442.303 416.862 441.686 415.924 440.451C414.987 439.217 414.518 437.736 414.518 436.01C414.518 434.822 414.733 433.729 415.163 432.729C415.592 431.721 416.213 430.943 417.026 430.396C417.846 429.85 418.807 429.576 419.909 429.576C421.377 429.576 422.588 430.17 423.542 431.357V429.857H425.487V440.615C425.487 442.553 425.288 443.924 424.889 444.729C424.499 445.541 423.874 446.182 423.014 446.65C422.163 447.119 421.112 447.354 419.862 447.354C418.377 447.354 417.178 447.018 416.264 446.346C415.35 445.682 414.909 444.678 414.94 443.334ZM416.686 435.857C416.686 437.49 417.01 438.682 417.659 439.432C418.307 440.182 419.12 440.557 420.096 440.557C421.065 440.557 421.877 440.186 422.534 439.443C423.19 438.693 423.518 437.521 423.518 435.928C423.518 434.404 423.178 433.256 422.499 432.482C421.827 431.709 421.014 431.322 420.061 431.322C419.124 431.322 418.327 431.705 417.67 432.471C417.014 433.229 416.686 434.357 416.686 435.857ZM428.686 442.303V425.123H430.795V431.287C431.78 430.146 433.022 429.576 434.522 429.576C435.444 429.576 436.245 429.76 436.924 430.127C437.604 430.486 438.088 430.986 438.377 431.627C438.674 432.268 438.823 433.197 438.823 434.416V442.303H436.713V434.416C436.713 433.361 436.483 432.596 436.022 432.119C435.569 431.635 434.924 431.393 434.088 431.393C433.463 431.393 432.874 431.557 432.319 431.885C431.772 432.205 431.381 432.643 431.147 433.197C430.913 433.752 430.795 434.518 430.795 435.494V442.303H428.686Z" fill="black"/>
<path d="M28.8812 56.8866L11.7043 56.5788L11.745 54.3058L18.7986 54.4321L18.9585 45.5039L11.905 45.3775L11.9457 43.1044L29.1226 43.4122L29.0819 45.6853L20.9856 45.5402L20.8256 54.4685L28.922 54.6135L28.8812 56.8866ZM14.4345 39.6094L12.0091 39.5659L12.0469 37.4569L14.4723 37.5004L14.4345 39.6094ZM29.186 39.8737L16.7427 39.6508L16.7805 37.5417L29.2238 37.7647L29.186 39.8737ZM30.3057 34.9476L30.6471 32.9027C31.2813 32.8281 31.7465 32.5981 32.0425 32.2127C32.4424 31.6963 32.6505 30.9851 32.6667 30.079C32.6842 29.1026 32.5025 28.3453 32.1214 27.8071C31.7404 27.269 31.2 26.8999 30.5004 26.6998C30.0727 26.5828 29.1714 26.5158 27.7965 26.499C28.8657 27.4402 29.3881 28.5982 29.3634 29.9729C29.3328 31.6836 28.692 32.9966 27.441 33.9118C26.19 34.827 24.7014 35.2692 22.9751 35.2383C21.7878 35.217 20.6981 34.9826 19.7059 34.535C18.706 34.0874 17.9399 33.4525 17.4077 32.6303C16.8756 31.8003 16.6194 30.8346 16.6391 29.7332C16.6654 28.2647 17.2808 27.0646 18.4852 26.1329L16.9854 26.1061L17.0202 24.1611L27.7763 24.3538C29.7135 24.3885 31.0808 24.6122 31.8782 25.025C32.6836 25.4301 33.3129 26.0665 33.7662 26.9341C34.2196 27.794 34.4352 28.8488 34.4128 30.0986C34.3862 31.5827 34.0288 32.7757 33.3407 33.6776C32.6603 34.5796 31.6487 35.003 30.3057 34.9476ZM22.8616 33.0679C24.4942 33.0972 25.6912 32.7943 26.4527 32.1594C27.2142 31.5245 27.6037 30.7189 27.6212 29.7425C27.6385 28.7739 27.2821 27.9549 26.5517 27.2854C25.8136 26.6158 24.6478 26.2668 23.0543 26.2382C21.5311 26.2109 20.3768 26.5302 19.5913 27.1959C18.8059 27.8538 18.4047 28.6592 18.3877 29.6122C18.3709 30.5496 18.7393 31.3532 19.4931 32.023C20.239 32.6927 21.3619 33.041 22.8616 33.0679ZM29.5209 21.1853L12.3439 20.8775L12.3817 18.7685L18.5448 18.8789C17.422 17.8743 16.874 16.6221 16.9009 15.1223C16.9174 14.2006 17.1153 13.4032 17.4946 12.7302C17.8661 12.0571 18.3747 11.5817 19.0204 11.3042C19.6662 11.0188 20.5984 10.8871 21.817 10.9089L29.7024 11.0502L29.6647 13.1592L21.7792 13.018C20.7247 12.9991 19.9551 13.2158 19.4703 13.6681C18.9779 14.1125 18.7242 14.7526 18.7092 15.5884C18.698 16.2133 18.8515 16.806 19.1696 17.3664C19.4801 17.919 19.9105 18.3174 20.4609 18.5616C21.0113 18.8059 21.7747 18.9368 22.7512 18.9543L29.5587 19.0762L29.5209 21.1853Z" fill="black"/>
<path d="M31.1242 409.41L13.9616 410.176L13.8603 407.904L28.9976 407.229L28.6206 398.777L30.646 398.687L31.1242 409.41ZM24.3553 397.301C22.0529 397.404 20.3191 396.84 19.1537 395.61C18.1851 394.581 17.6665 393.299 17.5979 391.761C17.5217 390.052 18.0213 388.63 19.0968 387.495C20.1645 386.36 21.6856 385.749 23.6602 385.661C25.2602 385.589 26.5315 385.775 27.474 386.218C28.4084 386.653 29.1498 387.32 29.6982 388.218C30.2462 389.109 30.5444 390.097 30.5928 391.181C30.6704 392.922 30.1752 394.356 29.1071 395.482C28.0388 396.601 26.4548 397.208 24.3553 397.301ZM24.2588 395.136C25.8509 395.065 27.0296 394.664 27.7947 393.934C28.552 393.204 28.9071 392.312 28.8601 391.259C28.8135 390.213 28.3766 389.36 27.5496 388.701C26.7225 388.042 25.4934 387.749 23.8622 387.822C22.3247 387.89 21.1774 388.293 20.4205 389.031C19.6554 389.761 19.296 390.645 19.3422 391.683C19.3892 392.737 19.8224 393.593 20.6416 394.253C21.4609 394.912 22.6666 395.207 24.2588 395.136ZM29.8393 380.599L17.576 384.958L17.4789 382.781L24.5672 380.482L27.2035 379.626C27.0694 379.6 26.2052 379.424 24.6109 379.096L17.2409 377.442L17.1443 375.277L24.2728 373.094L26.6217 372.367L24.1899 371.76L16.9067 369.95L16.8153 367.901L29.4216 371.233L29.5193 373.423L22.1618 375.733L20.0642 376.308L29.7412 378.398L29.8393 380.599Z" fill="black"/>
<path opacity="0.2" d="M231.813 69.3008H228.282L226.878 65.6488H220.451L219.124 69.3008H215.681L221.943 53.2233H225.375L231.813 69.3008ZM225.836 62.94L223.621 56.974L221.449 62.94H225.836ZM236.474 69.3008H233.392V57.6539H236.255V59.3099C236.744 58.5276 237.183 58.0122 237.571 57.7636C237.965 57.515 238.411 57.3907 238.909 57.3907C239.61 57.3907 240.287 57.5845 240.937 57.972L239.983 60.6589C239.464 60.3225 238.982 60.1544 238.536 60.1544C238.104 60.1544 237.739 60.275 237.439 60.5163C237.139 60.7502 236.902 61.178 236.726 61.7994C236.558 62.4209 236.474 63.7223 236.474 65.7036V69.3008ZM241.563 63.3129C241.563 62.2893 241.815 61.2986 242.319 60.3408C242.824 59.383 243.537 58.6519 244.458 58.1474C245.386 57.643 246.421 57.3907 247.561 57.3907C249.323 57.3907 250.767 57.9647 251.893 59.1125C253.019 60.2531 253.582 61.6971 253.582 63.4445C253.582 65.2065 253.012 66.6687 251.871 67.8312C250.738 68.9864 249.309 69.564 247.583 69.564C246.516 69.564 245.496 69.3227 244.524 68.8402C243.559 68.3576 242.824 67.6521 242.319 66.7236C241.815 65.7877 241.563 64.6508 241.563 63.3129ZM244.721 63.4774C244.721 64.6325 244.995 65.5172 245.544 66.1313C246.092 66.7455 246.768 67.0526 247.572 67.0526C248.377 67.0526 249.049 66.7455 249.59 66.1313C250.139 65.5172 250.413 64.6252 250.413 63.4554C250.413 62.3149 250.139 61.4375 249.59 60.8234C249.049 60.2092 248.377 59.9021 247.572 59.9021C246.768 59.9021 246.092 60.2092 245.544 60.8234C244.995 61.4375 244.721 62.3222 244.721 63.4774ZM263.672 69.3008V67.557C263.248 68.1785 262.688 68.6684 261.994 69.0266C261.307 69.3849 260.579 69.564 259.811 69.564C259.029 69.564 258.327 69.3922 257.706 69.0485C257.084 68.7049 256.635 68.2224 256.357 67.6009C256.079 66.9795 255.94 66.1204 255.94 65.0237V57.6539H259.022V63.0058C259.022 64.6435 259.077 65.6488 259.186 66.0217C259.303 66.3872 259.512 66.6797 259.811 66.899C260.111 67.1111 260.491 67.2171 260.952 67.2171C261.478 67.2171 261.95 67.0745 262.367 66.7894C262.784 66.4969 263.069 66.1387 263.222 65.7146C263.376 65.2832 263.453 64.2341 263.453 62.5671V57.6539H266.534V69.3008H263.672ZM268.651 65.9778L271.743 65.5062C271.875 66.1058 272.142 66.5627 272.544 66.8771C272.946 67.1842 273.509 67.3377 274.233 67.3377C275.03 67.3377 275.629 67.1915 276.032 66.899C276.302 66.6943 276.437 66.4201 276.437 66.0765C276.437 65.8426 276.364 65.6488 276.218 65.4953C276.064 65.349 275.721 65.2138 275.187 65.0895C272.701 64.5411 271.126 64.0403 270.46 63.587C269.539 62.9583 269.079 62.0846 269.079 60.9659C269.079 59.957 269.477 59.1089 270.274 58.4216C271.071 57.7344 272.306 57.3907 273.981 57.3907C275.575 57.3907 276.759 57.6503 277.534 58.1694C278.309 58.6885 278.843 59.4562 279.135 60.4724L276.229 61.0098C276.105 60.5565 275.867 60.2092 275.516 59.9679C275.172 59.7267 274.679 59.606 274.036 59.606C273.224 59.606 272.643 59.7194 272.292 59.946C272.058 60.1069 271.941 60.3152 271.941 60.5711C271.941 60.7905 272.043 60.9769 272.248 61.1304C272.526 61.3352 273.484 61.6239 275.121 61.9968C276.766 62.3697 277.914 62.8267 278.565 63.3677C279.208 63.916 279.53 64.6801 279.53 65.6598C279.53 66.7272 279.084 67.6448 278.192 68.4125C277.3 69.1801 275.98 69.564 274.233 69.564C272.646 69.564 271.389 69.2423 270.46 68.5989C269.539 67.9555 268.936 67.0818 268.651 65.9778ZM284.542 61.2072L281.745 60.7027C282.06 59.5768 282.601 58.7433 283.368 58.2023C284.136 57.6612 285.277 57.3907 286.79 57.3907C288.165 57.3907 289.188 57.5552 289.861 57.8842C290.533 58.2059 291.005 58.619 291.276 59.1235C291.553 59.6207 291.692 60.5382 291.692 61.8762L291.659 65.4733C291.659 66.4969 291.707 67.2536 291.802 67.7435C291.904 68.226 292.091 68.7451 292.361 69.3008H289.312C289.232 69.0961 289.133 68.7926 289.016 68.3905C288.965 68.2077 288.929 68.0871 288.907 68.0286C288.38 68.5404 287.817 68.9243 287.218 69.1801C286.618 69.436 285.979 69.564 285.299 69.564C284.1 69.564 283.153 69.2386 282.458 68.5879C281.771 67.9372 281.427 67.1147 281.427 66.1204C281.427 65.4624 281.584 64.8775 281.899 64.3657C282.213 63.8466 282.652 63.4518 283.215 63.1812C283.785 62.9034 284.604 62.6621 285.671 62.4574C287.112 62.1869 288.11 61.9347 288.665 61.7007V61.3936C288.665 60.8014 288.519 60.381 288.227 60.1324C287.934 59.8766 287.382 59.7486 286.571 59.7486C286.022 59.7486 285.595 59.8583 285.288 60.0776C284.981 60.2896 284.732 60.6662 284.542 61.2072ZM288.665 63.7077C288.271 63.8393 287.646 63.9965 286.79 64.1792C285.935 64.362 285.375 64.5411 285.112 64.7166C284.71 65.0018 284.509 65.3637 284.509 65.8023C284.509 66.2337 284.67 66.6066 284.992 66.921C285.313 67.2353 285.723 67.3925 286.22 67.3925C286.775 67.3925 287.306 67.2098 287.81 66.8442C288.183 66.5664 288.428 66.2264 288.545 65.8243C288.625 65.5611 288.665 65.0602 288.665 64.3218V63.7077ZM294.741 69.3008V53.2233H297.823V69.3008H294.741Z" fill="black"/>
<path opacity="0.2" d="M118.906 103.436L116.02 101.39L116.989 97.5923L111.738 93.8684L108.537 96.0838L105.723 94.0884L120.157 84.579L122.962 86.568L118.906 103.436ZM117.708 94.775L119.354 88.6162L114.123 92.2332L117.708 94.775ZM128.961 110.566L126.443 108.78L129.887 103.923C130.616 102.896 131.032 102.194 131.137 101.819C131.245 101.438 131.236 101.077 131.11 100.736C130.99 100.4 130.759 100.111 130.419 99.869C129.982 99.5598 129.506 99.4018 128.99 99.395C128.474 99.3883 128.011 99.5355 127.6 99.8366C127.195 100.142 126.615 100.826 125.861 101.89L122.804 106.2L120.286 104.415L127.035 94.8974L129.374 96.556L128.383 97.954C129.976 97.4674 131.402 97.6711 132.663 98.565C133.219 98.959 133.654 99.4207 133.97 99.95C134.291 100.473 134.457 100.973 134.47 101.449C134.489 101.929 134.403 102.398 134.213 102.856C134.029 103.318 133.676 103.916 133.155 104.651L128.961 110.566ZM130.314 111.526L137.223 109.057L137.207 102.11L140.28 104.29L140.11 108.101L143.74 106.743L146.697 108.84L140.274 111.06L140.244 118.567L137.152 116.374L137.307 112.053L133.263 113.616L130.314 111.526ZM149.404 108.82L151.057 106.49L153.575 108.276L151.923 110.606L149.404 108.82ZM141.741 119.628L148.489 110.11L151.008 111.896L144.259 121.414L141.741 119.628ZM154.508 124.129L156.719 126.33C155.744 127.021 154.735 127.361 153.693 127.349C152.661 127.336 151.622 126.958 150.577 126.217C148.922 125.043 148.081 123.634 148.053 121.989C148.04 120.678 148.501 119.362 149.438 118.042C150.556 116.465 151.843 115.523 153.299 115.218C154.759 114.906 156.119 115.197 157.38 116.091C158.796 117.095 159.58 118.356 159.734 119.875C159.891 121.387 159.268 123.096 157.864 125L151.555 120.526C151.043 121.286 150.833 122.012 150.925 122.706C151.021 123.394 151.359 123.943 151.938 124.354C152.333 124.633 152.74 124.761 153.162 124.737C153.583 124.712 154.032 124.51 154.508 124.129ZM156.456 121.686C156.955 120.944 157.159 120.258 157.067 119.627C156.98 118.991 156.679 118.49 156.166 118.126C155.616 117.736 155.02 117.614 154.378 117.761C153.735 117.907 153.174 118.325 152.692 119.017L156.456 121.686ZM168.178 124.072L166.755 126.079L165.034 124.859L162.314 128.695C161.764 129.471 161.457 129.936 161.393 130.089C161.34 130.24 161.341 130.397 161.395 130.561C161.455 130.73 161.569 130.873 161.736 130.992C161.969 131.157 162.364 131.316 162.92 131.468L161.75 133.574C160.987 133.41 160.235 133.065 159.494 132.54C159.04 132.218 158.683 131.853 158.425 131.445C158.171 131.031 158.042 130.643 158.038 130.282C158.044 129.918 158.161 129.507 158.387 129.048C158.541 128.717 158.934 128.107 159.565 127.216L162.507 123.067L161.351 122.247L162.774 120.24L163.93 121.06L165.271 119.169L168.841 119.491L166.458 122.852L168.178 124.072ZM168.734 124.466L171.414 126.366L168.898 134.737L175.912 129.556L178.52 131.405L168.665 138.181L166.889 139.413C166.274 139.812 165.761 140.086 165.35 140.234C164.946 140.387 164.548 140.46 164.158 140.453C163.77 140.456 163.349 140.373 162.894 140.203C162.446 140.038 161.983 139.786 161.505 139.447C161.021 139.104 160.582 138.716 160.188 138.284L161.362 136.154C161.701 136.511 162.029 136.802 162.346 137.027C162.931 137.442 163.487 137.576 164.014 137.428C164.536 137.287 165.06 137.003 165.587 136.577L168.734 124.466Z" fill="black"/>
<path opacity="0.2" d="M363.038 119.992L348.603 104.587L359.164 94.6921L361.606 97.2981L354.156 104.279L357.572 107.925L364.003 101.899L366.445 104.505L360.014 110.531L366.148 117.078L363.038 119.992ZM376.152 107.704L361.717 92.2995L364.67 89.5328L379.104 104.938L376.152 107.704ZM376.082 96.9947C375.163 96.014 374.516 94.8383 374.139 93.4677C373.763 92.0971 373.789 90.7565 374.219 89.4461C374.656 88.1291 375.421 86.9586 376.513 85.9346C378.202 84.3527 380.1 83.6063 382.21 83.6953C384.313 83.7772 386.148 84.6554 387.717 86.3297C389.299 88.0179 390.066 89.931 390.016 92.0688C389.968 94.1931 389.117 96.0298 387.463 97.5789C386.441 98.5372 385.247 99.2217 383.882 99.6324C382.524 100.036 381.186 100.02 379.869 99.5834C378.546 99.1396 377.283 98.2767 376.082 96.9947ZM379.256 94.3167C380.293 95.4236 381.35 96.0251 382.427 96.1212C383.504 96.2174 384.428 95.9044 385.198 95.1824C385.969 94.4604 386.338 93.5622 386.305 92.4881C386.279 91.4073 385.741 90.3065 384.69 89.1856C383.666 88.0928 382.616 87.4983 381.539 87.4022C380.469 87.2994 379.549 87.6091 378.779 88.3311C378.008 89.0532 377.636 89.9546 377.662 91.0353C377.688 92.1161 378.219 93.2099 379.256 94.3167ZM397.378 87.8155L383.391 79.9642L386.259 77.2762L395.203 82.6305L390.274 73.5151L393.121 70.8468L401.834 76.4177L397.114 67.1053L400.025 64.378L406.898 78.895L404.061 81.5535L395.413 76.1783L400.247 85.1275L397.378 87.8155Z" fill="black"/>
<path opacity="0.2" d="M75.6459 224.477L71.7491 208.154H75.1226L77.5832 219.366L80.5671 208.154H84.4862L87.3476 219.555L89.8527 208.154H93.1706L89.207 224.477H85.7109L82.4598 212.274L79.2199 224.477H75.6459ZM93.6939 218.397C93.6939 217.358 93.95 216.353 94.4621 215.38C94.9743 214.408 95.698 213.666 96.6332 213.153C97.5759 212.641 98.6262 212.385 99.7841 212.385C101.573 212.385 103.039 212.968 104.182 214.133C105.325 215.291 105.897 216.757 105.897 218.531C105.897 220.32 105.318 221.804 104.16 222.985C103.009 224.157 101.558 224.744 99.8064 224.744C98.7227 224.744 97.6872 224.499 96.7 224.009C95.7203 223.519 94.9743 222.803 94.4621 221.86C93.95 220.91 93.6939 219.756 93.6939 218.397ZM96.9004 218.564C96.9004 219.737 97.1788 220.635 97.7355 221.259C98.2922 221.882 98.9788 222.194 99.7952 222.194C100.612 222.194 101.295 221.882 101.844 221.259C102.401 220.635 102.679 219.73 102.679 218.542C102.679 217.384 102.401 216.494 101.844 215.87C101.295 215.247 100.612 214.935 99.7952 214.935C98.9788 214.935 98.2922 215.247 97.7355 215.87C97.1788 216.494 96.9004 217.392 96.9004 218.564ZM111.352 224.477H108.224V212.652H111.13V214.334C111.627 213.539 112.072 213.016 112.466 212.764C112.866 212.511 113.319 212.385 113.824 212.385C114.536 212.385 115.223 212.582 115.884 212.975L114.915 215.703C114.388 215.362 113.898 215.191 113.445 215.191C113.007 215.191 112.636 215.313 112.332 215.558C112.028 215.796 111.786 216.23 111.608 216.861C111.438 217.492 111.352 218.813 111.352 220.825V224.477ZM120.237 224.477H117.108V212.652H120.014V214.334C120.512 213.539 120.957 213.016 121.35 212.764C121.751 212.511 122.204 212.385 122.709 212.385C123.421 212.385 124.108 212.582 124.768 212.975L123.8 215.703C123.273 215.362 122.783 215.191 122.33 215.191C121.892 215.191 121.521 215.313 121.217 215.558C120.912 215.796 120.671 216.23 120.493 216.861C120.322 217.492 120.237 218.813 120.237 220.825V224.477ZM124.646 212.652H127.975L130.803 221.047L133.564 212.652H136.804L132.629 224.031L131.883 226.091C131.608 226.781 131.345 227.308 131.092 227.672C130.848 228.036 130.562 228.329 130.235 228.552C129.916 228.782 129.519 228.96 129.044 229.086C128.576 229.212 128.046 229.275 127.452 229.275C126.85 229.275 126.26 229.212 125.681 229.086L125.403 226.637C125.893 226.733 126.335 226.781 126.728 226.781C127.455 226.781 127.994 226.566 128.342 226.136C128.691 225.712 128.959 225.171 129.144 224.51L124.646 212.652Z" fill="black"/>
<path opacity="0.2" d="M114.014 361.775L111.439 364.031L108.082 362.265L103.396 366.372L104.762 369.883L102.251 372.083L96.5438 356.358L99.0469 354.165L114.014 361.775ZM105.591 360.956L100.164 358.021L102.393 363.759L105.591 360.956ZM107.756 352.245L109.851 350.409L110.944 351.657C110.842 350.992 110.907 350.323 111.137 349.65C111.367 348.977 111.765 348.393 112.33 347.898C113.316 347.033 114.492 346.686 115.857 346.857C117.222 347.027 118.51 347.803 119.72 349.184C120.962 350.602 121.583 352.009 121.581 353.405C121.575 354.796 121.079 355.924 120.092 356.788C119.623 357.199 119.115 357.48 118.567 357.63C118.025 357.775 117.345 357.805 116.527 357.721L120.276 362L118.029 363.969L107.756 352.245ZM113.574 354.399C114.41 355.354 115.218 355.894 115.999 356.021C116.774 356.143 117.434 355.965 117.978 355.489C118.5 355.031 118.753 354.442 118.735 353.723C118.712 352.998 118.283 352.158 117.447 351.204C116.666 350.313 115.909 349.809 115.173 349.69C114.437 349.571 113.806 349.743 113.278 350.206C112.729 350.687 112.46 351.299 112.471 352.044C112.477 352.782 112.845 353.568 113.574 354.399ZM121.782 344.535L119.42 345.954C118.93 344.932 118.792 343.979 119.006 343.094C119.22 342.208 119.879 341.282 120.983 340.315C121.985 339.437 122.837 338.903 123.537 338.713C124.233 338.518 124.841 338.518 125.361 338.713C125.881 338.898 126.569 339.478 127.424 340.454L129.698 343.098C130.352 343.844 130.87 344.366 131.253 344.662C131.636 344.949 132.103 345.208 132.655 345.44L130.432 347.388C130.243 347.291 129.977 347.132 129.635 346.914C129.481 346.813 129.377 346.749 129.324 346.72C129.267 347.43 129.101 348.069 128.828 348.639C128.554 349.209 128.169 349.711 127.674 350.145C126.799 350.911 125.901 351.279 124.979 351.248C124.062 351.213 123.286 350.833 122.65 350.108C122.23 349.628 121.971 349.101 121.873 348.527C121.77 347.947 121.838 347.379 122.076 346.822C122.314 346.255 122.757 345.556 123.405 344.725C124.282 343.607 124.849 342.786 125.104 342.26L124.908 342.036C124.53 341.604 124.154 341.391 123.782 341.397C123.405 341.397 122.921 341.656 122.329 342.175C121.93 342.525 121.688 342.879 121.604 343.235C121.516 343.586 121.575 344.019 121.782 344.535ZM126.387 343.723C126.183 344.072 125.827 344.586 125.32 345.266C124.813 345.945 124.52 346.433 124.44 346.73C124.329 347.194 124.414 347.587 124.694 347.907C124.97 348.221 125.325 348.39 125.761 348.414C126.196 348.438 126.595 348.291 126.958 347.973C127.363 347.618 127.633 347.146 127.767 346.557C127.861 346.116 127.823 345.712 127.651 345.344C127.542 345.101 127.251 344.71 126.779 344.171L126.387 343.723ZM130.843 332.014L132.413 333.806L130.878 335.151L133.877 338.574C134.484 339.267 134.853 339.66 134.982 339.754C135.112 339.838 135.26 339.873 135.427 339.859C135.599 339.84 135.76 339.765 135.909 339.635C136.117 339.452 136.355 339.116 136.624 338.627L138.343 340.202C138.017 340.884 137.523 341.514 136.862 342.093C136.457 342.449 136.033 342.702 135.591 342.854C135.145 343 134.751 343.034 134.409 342.956C134.068 342.869 133.707 342.667 133.326 342.35C133.05 342.131 132.563 341.624 131.867 340.83L128.622 337.127L127.591 338.031L126.021 336.24L127.053 335.336L125.574 333.648L126.68 330.361L129.308 333.36L130.843 332.014ZM131.811 325.455L135.588 329.765C135.57 328.282 136.065 327.099 137.073 326.216C137.59 325.763 138.141 325.45 138.725 325.278C139.309 325.105 139.835 325.077 140.305 325.194C140.78 325.305 141.213 325.51 141.606 325.807C142.003 326.099 142.536 326.627 143.204 327.389L147.57 332.371L145.323 334.34L141.392 329.854C140.611 328.964 140.074 328.436 139.778 328.271C139.483 328.106 139.165 328.05 138.825 328.102C138.485 328.145 138.153 328.309 137.828 328.594C137.455 328.921 137.201 329.304 137.066 329.742C136.932 330.18 136.957 330.644 137.14 331.133C137.325 331.613 137.73 332.21 138.356 332.924L142.084 337.178L139.837 339.148L129.564 327.424L131.811 325.455ZM141.352 322.806L143.743 320.711L151.058 324.961L147.757 317.193L150.084 315.154L154.247 325.955L155.008 327.904C155.245 328.572 155.387 329.117 155.435 329.537C155.488 329.952 155.467 330.343 155.373 330.708C155.288 331.074 155.115 331.452 154.854 331.842C154.597 332.227 154.256 332.606 153.829 332.98C153.397 333.358 152.934 333.684 152.438 333.958L150.697 332.374C151.109 332.135 151.457 331.892 151.74 331.644C152.262 331.186 152.513 330.693 152.493 330.164C152.477 329.641 152.328 329.083 152.045 328.492L141.352 322.806Z" fill="black"/>
<path opacity="0.2" d="M376.998 218.231L380.005 219.184C379.544 220.86 378.776 222.107 377.7 222.924C376.632 223.734 375.274 224.139 373.625 224.139C371.586 224.139 369.91 223.444 368.597 222.054C367.284 220.658 366.628 218.751 366.628 216.335C366.628 213.779 367.288 211.796 368.608 210.385C369.928 208.967 371.663 208.259 373.814 208.259C375.693 208.259 377.218 208.814 378.392 209.924C379.09 210.581 379.614 211.523 379.963 212.752L376.894 213.486C376.712 212.689 376.332 212.061 375.752 211.6C375.179 211.139 374.481 210.909 373.657 210.909C372.519 210.909 371.593 211.317 370.881 212.134C370.176 212.951 369.823 214.275 369.823 216.104C369.823 218.046 370.172 219.429 370.87 220.253C371.569 221.077 372.477 221.489 373.594 221.489C374.418 221.489 375.127 221.227 375.72 220.703C376.314 220.179 376.74 219.355 376.998 218.231ZM381.974 218.158C381.974 217.18 382.215 216.234 382.697 215.319C383.179 214.404 383.86 213.706 384.74 213.224C385.626 212.742 386.615 212.501 387.704 212.501C389.387 212.501 390.766 213.049 391.842 214.146C392.917 215.235 393.455 216.614 393.455 218.283C393.455 219.966 392.91 221.363 391.821 222.473C390.738 223.577 389.373 224.128 387.725 224.128C386.705 224.128 385.731 223.898 384.802 223.437C383.881 222.976 383.179 222.302 382.697 221.415C382.215 220.521 381.974 219.435 381.974 218.158ZM384.991 218.315C384.991 219.418 385.253 220.263 385.777 220.85C386.3 221.436 386.946 221.73 387.714 221.73C388.483 221.73 389.125 221.436 389.642 220.85C390.166 220.263 390.428 219.411 390.428 218.294C390.428 217.204 390.166 216.366 389.642 215.78C389.125 215.193 388.483 214.9 387.714 214.9C386.946 214.9 386.3 215.193 385.777 215.78C385.253 216.366 384.991 217.211 384.991 218.315ZM405.889 223.877H402.945V218.199C402.945 216.998 402.883 216.223 402.757 215.874C402.631 215.518 402.425 215.242 402.139 215.046C401.859 214.851 401.521 214.753 401.123 214.753C400.613 214.753 400.155 214.893 399.75 215.172C399.345 215.451 399.066 215.822 398.912 216.282C398.766 216.743 398.692 217.595 398.692 218.838V223.877H395.749V212.752H398.483V214.386C399.454 213.129 400.676 212.501 402.149 212.501C402.799 212.501 403.392 212.62 403.93 212.857C404.468 213.088 404.873 213.384 405.145 213.747C405.424 214.111 405.617 214.523 405.721 214.984C405.833 215.444 405.889 216.104 405.889 216.963V223.877ZM413.986 212.752V215.099H411.975V219.582C411.975 220.49 411.992 221.021 412.027 221.174C412.069 221.321 412.157 221.443 412.289 221.541C412.429 221.639 412.596 221.688 412.792 221.688C413.064 221.688 413.459 221.593 413.976 221.405L414.227 223.688C413.543 223.982 412.768 224.128 411.902 224.128C411.371 224.128 410.893 224.041 410.467 223.866C410.041 223.685 409.726 223.454 409.524 223.175C409.328 222.889 409.192 222.505 409.115 222.023C409.052 221.681 409.021 220.989 409.021 219.949V215.099H407.67V212.752H409.021V210.542L411.975 208.824V212.752H413.986ZM418.847 223.877H415.903V212.752H418.637V214.334C419.105 213.587 419.524 213.095 419.894 212.857C420.271 212.62 420.697 212.501 421.172 212.501C421.843 212.501 422.488 212.686 423.11 213.056L422.199 215.623C421.703 215.301 421.242 215.141 420.816 215.141C420.404 215.141 420.055 215.256 419.768 215.486C419.482 215.71 419.255 216.118 419.088 216.712C418.927 217.306 418.847 218.549 418.847 220.441V223.877ZM423.707 218.158C423.707 217.18 423.948 216.234 424.43 215.319C424.912 214.404 425.593 213.706 426.473 213.224C427.359 212.742 428.348 212.501 429.437 212.501C431.12 212.501 432.499 213.049 433.575 214.146C434.65 215.235 435.188 216.614 435.188 218.283C435.188 219.966 434.643 221.363 433.554 222.473C432.471 223.577 431.106 224.128 429.458 224.128C428.438 224.128 427.464 223.898 426.535 223.437C425.614 222.976 424.912 222.302 424.43 221.415C423.948 220.521 423.707 219.435 423.707 218.158ZM426.724 218.315C426.724 219.418 426.986 220.263 427.51 220.85C428.033 221.436 428.679 221.73 429.447 221.73C430.216 221.73 430.858 221.436 431.375 220.85C431.899 220.263 432.161 219.411 432.161 218.294C432.161 217.204 431.899 216.366 431.375 215.78C430.858 215.193 430.216 214.9 429.447 214.9C428.679 214.9 428.033 215.193 427.51 215.78C426.986 216.366 426.724 217.211 426.724 218.315ZM437.503 223.877V208.52H440.446V223.877H437.503Z" fill="black"/>
<path opacity="0.2" d="M344.748 319.003L355.394 307.17L360.423 311.694C361.687 312.832 362.508 313.765 362.884 314.493C363.271 315.221 363.393 316.012 363.248 316.865C363.103 317.718 362.716 318.495 362.087 319.194C361.288 320.082 360.366 320.582 359.322 320.693C358.282 320.799 357.175 320.461 356.001 319.677C356.246 320.443 356.373 321.156 356.383 321.817C356.397 322.483 356.276 323.532 356.018 324.965L355.386 328.574L352.529 326.003L353.118 321.874C353.333 320.402 353.433 319.446 353.42 319.006C353.412 318.56 353.32 318.181 353.145 317.867C352.974 317.548 352.615 317.142 352.066 316.648L351.582 316.212L347.137 321.152L344.748 319.003ZM353.281 314.324L355.048 315.914C356.195 316.945 356.954 317.541 357.326 317.7C357.699 317.86 358.072 317.894 358.446 317.803C358.821 317.711 359.168 317.488 359.487 317.133C359.846 316.734 360.026 316.317 360.029 315.882C360.041 315.445 359.883 315.021 359.554 314.607C359.384 314.406 358.815 313.87 357.847 312.999L355.982 311.321L353.281 314.324ZM364.088 331.466L366.007 333.879C364.971 334.446 363.942 334.665 362.92 334.534C361.909 334.403 360.932 333.914 359.99 333.066C358.5 331.725 357.835 330.246 357.995 328.628C358.132 327.34 358.736 326.101 359.806 324.912C361.084 323.491 362.455 322.714 363.919 322.58C365.388 322.441 366.69 322.882 367.825 323.904C369.1 325.051 369.727 326.379 369.704 327.887C369.686 329.39 368.879 330.996 367.283 332.705L361.6 327.592C361.011 328.279 360.722 328.969 360.733 329.66C360.749 330.346 361.018 330.924 361.54 331.393C361.895 331.713 362.281 331.885 362.697 331.909C363.113 331.933 363.577 331.785 364.088 331.466ZM366.28 329.29C366.854 328.619 367.133 327.969 367.115 327.339C367.102 326.705 366.864 326.179 366.401 325.763C365.906 325.317 365.335 325.13 364.688 325.2C364.04 325.27 363.441 325.617 362.89 326.24L366.28 329.29ZM365.871 338.007L376.517 326.174L378.785 328.215L368.139 340.048L365.871 338.007ZM377.526 337.714L375.802 335.491C376.779 334.871 377.729 334.616 378.652 334.726C379.576 334.836 380.594 335.392 381.708 336.394C382.72 337.304 383.364 338.103 383.641 338.791C383.923 339.473 383.997 340.089 383.862 340.64C383.737 341.19 383.232 341.957 382.346 342.942L379.94 345.567C379.262 346.321 378.796 346.909 378.541 347.332C378.297 347.755 378.091 348.261 377.922 348.849L375.678 346.83C375.754 346.626 375.883 346.338 376.063 345.964C376.146 345.796 376.199 345.683 376.222 345.625C375.495 345.653 374.827 345.563 374.216 345.354C373.606 345.146 373.05 344.816 372.55 344.366C371.667 343.572 371.186 342.706 371.105 341.767C371.03 340.833 371.322 340 371.981 339.268C372.416 338.784 372.919 338.457 373.49 338.289C374.065 338.115 374.649 338.115 375.242 338.289C375.846 338.462 376.609 338.826 377.53 339.383C378.769 340.137 379.67 340.612 380.234 340.808L380.438 340.582C380.83 340.146 381.001 339.74 380.95 339.363C380.904 338.981 380.583 338.522 379.985 337.984C379.582 337.621 379.194 337.419 378.823 337.377C378.457 337.33 378.024 337.442 377.526 337.714ZM378.905 342.285C378.528 342.121 377.964 341.822 377.213 341.39C376.462 340.959 375.932 340.72 375.622 340.675C375.137 340.619 374.75 340.752 374.459 341.075C374.174 341.392 374.045 341.773 374.074 342.217C374.102 342.662 374.3 343.049 374.665 343.378C375.074 343.746 375.586 343.962 376.199 344.027C376.657 344.07 377.063 343.982 377.415 343.763C377.649 343.623 378.01 343.281 378.499 342.737L378.905 342.285ZM378.584 349.444L385.647 347.811L386.425 340.989L389.194 343.479L388.591 347.202L392.309 346.283L394.973 348.679L388.414 350.125L387.527 357.491L384.742 354.985L385.388 350.761L381.239 351.834L378.584 349.444ZM395.929 354.272L394.205 352.048C395.182 351.428 396.132 351.173 397.055 351.283C397.979 351.393 398.997 351.949 400.111 352.951C401.123 353.861 401.767 354.66 402.044 355.348C402.326 356.03 402.4 356.646 402.265 357.197C402.14 357.747 401.635 358.514 400.749 359.499L398.343 362.124C397.665 362.878 397.199 363.466 396.944 363.889C396.7 364.312 396.494 364.818 396.325 365.406L394.081 363.387C394.157 363.183 394.286 362.895 394.466 362.521C394.549 362.353 394.602 362.24 394.625 362.182C393.898 362.21 393.23 362.12 392.619 361.911C392.009 361.703 391.453 361.373 390.953 360.923C390.07 360.129 389.589 359.263 389.508 358.324C389.433 357.39 389.725 356.557 390.384 355.825C390.819 355.341 391.322 355.014 391.893 354.846C392.468 354.672 393.052 354.672 393.645 354.846C394.249 355.019 395.012 355.383 395.933 355.94C397.172 356.694 398.073 357.169 398.637 357.365L398.841 357.139C399.233 356.703 399.404 356.297 399.353 355.921C399.307 355.539 398.986 355.079 398.388 354.541C397.985 354.178 397.597 353.976 397.226 353.934C396.86 353.887 396.427 353.999 395.929 354.272ZM397.308 358.842C396.931 358.678 396.367 358.379 395.616 357.948C394.865 357.516 394.335 357.277 394.025 357.232C393.54 357.176 393.153 357.309 392.862 357.632C392.577 357.949 392.448 358.33 392.477 358.775C392.505 359.219 392.703 359.606 393.068 359.935C393.477 360.303 393.989 360.519 394.602 360.584C395.06 360.627 395.466 360.539 395.818 360.32C396.052 360.18 396.413 359.838 396.902 359.294L397.308 358.842ZM409.719 361.946L408.093 363.754L406.543 362.36L403.435 365.815C402.806 366.514 402.451 366.935 402.371 367.078C402.302 367.22 402.285 367.375 402.319 367.542C402.359 367.714 402.454 367.868 402.605 368.004C402.815 368.192 403.184 368.393 403.713 368.606L402.324 370.54C401.593 370.292 400.894 369.867 400.227 369.267C399.818 368.899 399.51 368.5 399.303 368.07C399.1 367.635 399.018 367.24 399.055 366.884C399.103 366.528 399.265 366.137 399.539 365.713C399.728 365.406 400.183 364.851 400.905 364.049L404.267 360.312L403.226 359.376L404.852 357.568L405.894 358.504L407.426 356.801L410.893 357.525L408.17 360.552L409.719 361.946ZM412.339 362.2L414.227 360.102L416.495 362.142L414.607 364.241L412.339 362.2ZM403.581 371.934L411.293 363.363L413.561 365.403L405.849 373.975L403.581 371.934ZM411.622 371.195C412.3 370.441 413.142 369.879 414.147 369.508C415.153 369.137 416.161 369.071 417.174 369.31C418.191 369.554 419.119 370.053 419.959 370.808C421.256 371.975 421.938 373.354 422.007 374.944C422.08 376.529 421.539 377.964 420.382 379.251C419.215 380.547 417.827 381.246 416.218 381.346C414.619 381.446 413.184 380.925 411.914 379.782C411.129 379.075 410.538 378.222 410.142 377.223C409.751 376.229 409.677 375.223 409.921 374.206C410.169 373.183 410.736 372.179 411.622 371.195ZM413.838 373.407C413.073 374.257 412.689 375.09 412.686 375.905C412.683 376.72 412.977 377.394 413.569 377.927C414.161 378.459 414.859 378.678 415.664 378.585C416.475 378.496 417.267 378.021 418.042 377.16C418.797 376.32 419.176 375.493 419.179 374.678C419.188 373.868 418.896 373.196 418.304 372.664C417.712 372.131 417.011 371.91 416.201 371.998C415.39 372.087 414.603 372.557 413.838 373.407ZM426.085 392.181L423.816 390.14L427.752 385.765C428.585 384.84 429.074 384.199 429.219 383.843C429.369 383.481 429.402 383.126 429.317 382.777C429.237 382.432 429.044 382.122 428.737 381.846C428.344 381.493 427.895 381.283 427.389 381.218C426.884 381.152 426.412 381.244 425.974 381.492C425.541 381.746 424.894 382.351 424.032 383.309L420.539 387.192L418.271 385.151L425.983 376.579L428.09 378.474L426.957 379.734C428.577 379.438 429.954 379.801 431.089 380.822C431.59 381.273 431.965 381.776 432.215 382.331C432.469 382.882 432.576 383.391 432.534 383.86C432.497 384.333 432.36 384.784 432.121 385.212C431.887 385.644 431.473 386.192 430.877 386.853L426.085 392.181Z" fill="black"/>
<path d="M212.146 364.075H218.406C219.646 364.075 220.568 364.129 221.174 364.236C221.786 364.335 222.331 364.549 222.808 364.877C223.293 365.204 223.695 365.642 224.016 366.191C224.336 366.732 224.496 367.341 224.496 368.018C224.496 368.751 224.297 369.425 223.898 370.037C223.506 370.65 222.972 371.109 222.295 371.415C223.25 371.693 223.984 372.167 224.496 372.836C225.009 373.506 225.266 374.293 225.266 375.198C225.266 375.91 225.098 376.604 224.764 377.281C224.436 377.95 223.984 378.488 223.407 378.894C222.837 379.293 222.132 379.539 221.291 379.631C220.764 379.688 219.493 379.724 217.477 379.738H212.146V364.075ZM215.308 366.682V370.304H217.381C218.613 370.304 219.379 370.286 219.678 370.251C220.219 370.187 220.643 370.001 220.949 369.695C221.263 369.382 221.419 368.972 221.419 368.467C221.419 367.982 221.284 367.59 221.013 367.291C220.75 366.985 220.355 366.8 219.827 366.736C219.514 366.7 218.613 366.682 217.124 366.682H215.308ZM215.308 372.911V377.099H218.236C219.375 377.099 220.098 377.067 220.404 377.003C220.875 376.918 221.256 376.711 221.548 376.383C221.847 376.049 221.996 375.604 221.996 375.048C221.996 374.578 221.882 374.179 221.654 373.851C221.427 373.524 221.095 373.285 220.661 373.136C220.233 372.986 219.3 372.911 217.862 372.911H215.308ZM227.232 373.905C227.232 372.908 227.477 371.942 227.969 371.009C228.46 370.076 229.155 369.364 230.052 368.873C230.957 368.381 231.965 368.135 233.076 368.135C234.792 368.135 236.199 368.694 237.296 369.813C238.393 370.924 238.941 372.331 238.941 374.033C238.941 375.75 238.386 377.174 237.275 378.307C236.171 379.432 234.778 379.995 233.097 379.995C232.057 379.995 231.064 379.76 230.116 379.29C229.176 378.819 228.46 378.132 227.969 377.228C227.477 376.316 227.232 375.208 227.232 373.905ZM230.309 374.065C230.309 375.19 230.576 376.052 231.11 376.651C231.644 377.249 232.303 377.548 233.086 377.548C233.87 377.548 234.525 377.249 235.052 376.651C235.587 376.052 235.854 375.183 235.854 374.044C235.854 372.933 235.587 372.078 235.052 371.479C234.525 370.881 233.87 370.582 233.086 370.582C232.303 370.582 231.644 370.881 231.11 371.479C230.576 372.078 230.309 372.94 230.309 374.065ZM244.177 379.738H241.174V368.392H243.963V370.005C244.44 369.243 244.867 368.741 245.245 368.499C245.63 368.256 246.064 368.135 246.548 368.135C247.232 368.135 247.891 368.324 248.525 368.702L247.595 371.319C247.09 370.992 246.62 370.828 246.185 370.828C245.765 370.828 245.409 370.945 245.117 371.18C244.825 371.408 244.593 371.825 244.422 372.43C244.258 373.036 244.177 374.304 244.177 376.234V379.738ZM256.399 376.127L259.391 376.629C259.006 377.726 258.397 378.563 257.564 379.14C256.737 379.71 255.701 379.995 254.455 379.995C252.482 379.995 251.021 379.35 250.074 378.061C249.326 377.028 248.952 375.725 248.952 374.15C248.952 372.27 249.444 370.799 250.427 369.738C251.41 368.67 252.653 368.135 254.156 368.135C255.844 368.135 257.176 368.694 258.151 369.813C259.127 370.924 259.594 372.63 259.551 374.93H252.029C252.051 375.821 252.293 376.515 252.756 377.014C253.219 377.505 253.796 377.751 254.487 377.751C254.957 377.751 255.352 377.623 255.673 377.366C255.993 377.11 256.235 376.697 256.399 376.127ZM256.57 373.093C256.549 372.224 256.324 371.565 255.897 371.116C255.47 370.66 254.95 370.432 254.337 370.432C253.682 370.432 253.141 370.671 252.713 371.148C252.286 371.625 252.076 372.274 252.083 373.093H256.57ZM272.415 379.738H269.626V378.072C269.163 378.72 268.615 379.204 267.981 379.525C267.354 379.838 266.72 379.995 266.079 379.995C264.776 379.995 263.657 379.471 262.724 378.424C261.798 377.37 261.335 375.903 261.335 374.022C261.335 372.099 261.788 370.639 262.692 369.642C263.597 368.637 264.74 368.135 266.122 368.135C267.39 368.135 268.486 368.662 269.412 369.717V364.075H272.415V379.738ZM264.402 373.819C264.402 375.03 264.569 375.906 264.904 376.448C265.388 377.231 266.065 377.623 266.934 377.623C267.625 377.623 268.212 377.331 268.697 376.747C269.181 376.156 269.423 375.276 269.423 374.108C269.423 372.804 269.188 371.868 268.718 371.298C268.248 370.721 267.646 370.432 266.912 370.432C266.2 370.432 265.602 370.717 265.117 371.287C264.64 371.85 264.402 372.694 264.402 373.819ZM274.69 373.905C274.69 372.908 274.936 371.942 275.428 371.009C275.919 370.076 276.613 369.364 277.511 368.873C278.416 368.381 279.423 368.135 280.535 368.135C282.251 368.135 283.658 368.694 284.755 369.813C285.852 370.924 286.4 372.331 286.4 374.033C286.4 375.75 285.845 377.174 284.733 378.307C283.629 379.432 282.237 379.995 280.556 379.995C279.516 379.995 278.522 379.76 277.575 379.29C276.635 378.819 275.919 378.132 275.428 377.228C274.936 376.316 274.69 375.208 274.69 373.905ZM277.767 374.065C277.767 375.19 278.034 376.052 278.569 376.651C279.103 377.249 279.762 377.548 280.545 377.548C281.329 377.548 281.984 377.249 282.511 376.651C283.045 376.052 283.312 375.183 283.312 374.044C283.312 372.933 283.045 372.078 282.511 371.479C281.984 370.881 281.329 370.582 280.545 370.582C279.762 370.582 279.103 370.881 278.569 371.479C278.034 372.078 277.767 372.94 277.767 374.065ZM288.537 368.392H291.304V369.941C292.294 368.737 293.473 368.135 294.841 368.135C295.567 368.135 296.197 368.285 296.732 368.584C297.266 368.883 297.704 369.336 298.046 369.941C298.544 369.336 299.082 368.883 299.659 368.584C300.236 368.285 300.852 368.135 301.507 368.135C302.341 368.135 303.046 368.306 303.623 368.648C304.2 368.983 304.631 369.478 304.916 370.133C305.122 370.618 305.226 371.401 305.226 372.484V379.738H302.223V373.253C302.223 372.128 302.12 371.401 301.913 371.073C301.636 370.646 301.208 370.432 300.631 370.432C300.211 370.432 299.816 370.561 299.445 370.817C299.075 371.073 298.808 371.451 298.644 371.95C298.48 372.441 298.398 373.221 298.398 374.289V379.738H295.396V373.52C295.396 372.416 295.343 371.704 295.236 371.383C295.129 371.063 294.962 370.824 294.734 370.667C294.513 370.511 294.21 370.432 293.826 370.432C293.363 370.432 292.946 370.557 292.576 370.806C292.205 371.056 291.938 371.415 291.774 371.885C291.618 372.356 291.539 373.136 291.539 374.225V379.738H288.537V368.392Z" fill="black"/>
<path d="M21.8694 267.54L22.4436 265.267C24.3108 265.743 25.7366 266.603 26.7209 267.845C27.6975 269.079 28.1858 270.591 28.1858 272.38C28.1858 274.231 27.8108 275.739 27.0608 276.903C26.303 278.06 25.2092 278.942 23.7795 279.552C22.3499 280.153 20.8147 280.454 19.1741 280.454C17.385 280.454 15.8264 280.114 14.4983 279.435C13.1624 278.747 12.1506 277.774 11.4631 276.517C10.7678 275.251 10.4202 273.86 10.4202 272.345C10.4202 270.626 10.8577 269.181 11.7327 268.009C12.6077 266.837 13.8381 266.021 15.4241 265.56L15.9514 267.798C14.7014 268.196 13.7913 268.774 13.2209 269.532C12.6506 270.29 12.3655 271.243 12.3655 272.392C12.3655 273.712 12.6819 274.817 13.3147 275.708C13.9475 276.591 14.7991 277.212 15.8694 277.571C16.9319 277.931 18.0295 278.11 19.1624 278.11C20.6233 278.11 21.9006 277.899 22.9944 277.478C24.0803 277.048 24.8928 276.384 25.4319 275.485C25.9709 274.587 26.2405 273.614 26.2405 272.567C26.2405 271.294 25.8733 270.216 25.1389 269.333C24.4045 268.45 23.3147 267.853 21.8694 267.54ZM27.8928 262.724H10.7131V260.614H16.8772C15.7366 259.63 15.1663 258.388 15.1663 256.888C15.1663 255.966 15.3499 255.165 15.717 254.485C16.0764 253.806 16.5764 253.321 17.217 253.032C17.8577 252.735 18.7874 252.587 20.0061 252.587H27.8928V254.696H20.0061C18.9514 254.696 18.1858 254.927 17.7092 255.388C17.2249 255.841 16.9827 256.485 16.9827 257.321C16.9827 257.946 17.1467 258.536 17.4749 259.091C17.7952 259.638 18.2327 260.028 18.7874 260.263C19.342 260.497 20.1077 260.614 21.0842 260.614H27.8928V262.724ZM26.3577 241.243C27.0217 242.024 27.4905 242.778 27.7639 243.505C28.0374 244.224 28.1741 244.997 28.1741 245.825C28.1741 247.192 27.842 248.243 27.178 248.978C26.5061 249.712 25.6506 250.079 24.6116 250.079C24.0022 250.079 23.4475 249.942 22.9475 249.669C22.4397 249.388 22.0334 249.024 21.7288 248.579C21.4241 248.126 21.1936 247.618 21.0374 247.056C20.928 246.642 20.8225 246.017 20.7209 245.181C20.5178 243.478 20.2756 242.224 19.9944 241.419C19.7053 241.411 19.5217 241.407 19.4436 241.407C18.5842 241.407 17.9788 241.606 17.6272 242.005C17.1506 242.544 16.9124 243.345 16.9124 244.407C16.9124 245.399 17.0881 246.134 17.4397 246.61C17.7834 247.079 18.3967 247.427 19.2795 247.653L18.9983 249.716C18.1155 249.528 17.4045 249.22 16.8655 248.79C16.3186 248.36 15.9006 247.739 15.6116 246.927C15.3147 246.114 15.1663 245.173 15.1663 244.103C15.1663 243.04 15.2913 242.177 15.5413 241.513C15.7913 240.849 16.1077 240.36 16.4905 240.048C16.8655 239.735 17.342 239.517 17.9202 239.392C18.2795 239.321 18.928 239.286 19.8655 239.286H22.678C24.6389 239.286 25.8811 239.243 26.4045 239.157C26.9202 239.063 27.4163 238.884 27.8928 238.618V240.821C27.4553 241.04 26.9436 241.181 26.3577 241.243ZM21.6467 241.419C21.9592 242.185 22.2249 243.333 22.4436 244.864C22.5686 245.731 22.7092 246.345 22.8655 246.704C23.0217 247.063 23.2522 247.341 23.5569 247.536C23.8538 247.731 24.1858 247.829 24.553 247.829C25.1155 247.829 25.5842 247.618 25.9592 247.196C26.3342 246.767 26.5217 246.142 26.5217 245.321C26.5217 244.509 26.3459 243.786 25.9944 243.153C25.635 242.521 25.1467 242.056 24.5295 241.759C24.053 241.532 23.3499 241.419 22.4202 241.419H21.6467ZM27.8928 236.052H10.7131V233.942H27.8928V236.052ZM27.8928 230.708H10.7131V228.599H27.8928V230.708ZM23.885 216.798L24.1545 214.618C25.428 214.962 26.4163 215.599 27.1194 216.528C27.8225 217.458 28.1741 218.646 28.1741 220.091C28.1741 221.911 27.6155 223.356 26.4983 224.427C25.3733 225.489 23.7991 226.021 21.7756 226.021C19.6819 226.021 18.0569 225.481 16.9006 224.403C15.7444 223.325 15.1663 221.927 15.1663 220.208C15.1663 218.544 15.7327 217.185 16.8655 216.13C17.9983 215.075 19.592 214.548 21.6467 214.548C21.7717 214.548 21.9592 214.552 22.2092 214.56V223.841C23.5764 223.763 24.6233 223.376 25.3499 222.681C26.0764 221.985 26.4397 221.118 26.4397 220.079C26.4397 219.306 26.2366 218.646 25.8303 218.099C25.4241 217.552 24.7756 217.118 23.885 216.798ZM20.4749 223.724V216.774C19.428 216.868 18.6428 217.134 18.1194 217.571C17.3069 218.243 16.9006 219.114 16.9006 220.185C16.9006 221.153 17.2249 221.97 17.8733 222.634C18.5217 223.29 19.3889 223.653 20.4749 223.724ZM27.8928 211.958H15.4475V210.06H17.217C15.8499 209.146 15.1663 207.825 15.1663 206.099C15.1663 205.349 15.303 204.661 15.5764 204.036C15.842 203.403 16.1936 202.931 16.6311 202.618C17.0686 202.306 17.5881 202.087 18.1897 201.962C18.5803 201.884 19.2639 201.845 20.2405 201.845H27.8928V203.954H20.3225C19.4631 203.954 18.8225 204.036 18.4006 204.2C17.9709 204.364 17.6311 204.657 17.3811 205.079C17.1233 205.493 16.9944 205.981 16.9944 206.544C16.9944 207.442 17.2795 208.22 17.8499 208.876C18.4202 209.524 19.5022 209.849 21.0959 209.849H27.8928V211.958ZM28.9241 198.985L29.2288 196.935C29.8616 196.849 30.3225 196.61 30.6116 196.22C31.0022 195.696 31.1975 194.981 31.1975 194.075C31.1975 193.099 31.0022 192.345 30.6116 191.813C30.2209 191.282 29.6741 190.923 28.9709 190.735C28.5413 190.626 27.6389 190.575 26.2639 190.583C27.3499 191.505 27.8928 192.653 27.8928 194.028C27.8928 195.739 27.2756 197.063 26.0413 198.001C24.8069 198.938 23.3264 199.407 21.5999 199.407C20.4124 199.407 19.3186 199.192 18.3186 198.763C17.3108 198.333 16.5334 197.712 15.9866 196.899C15.4397 196.079 15.1663 195.118 15.1663 194.017C15.1663 192.548 15.76 191.337 16.9475 190.384H15.4475V188.438H26.2053C28.1428 188.438 29.5139 188.638 30.3186 189.036C31.1311 189.427 31.7717 190.052 32.2405 190.911C32.7092 191.763 32.9436 192.813 32.9436 194.063C32.9436 195.548 32.6077 196.747 31.9358 197.661C31.2717 198.575 30.2678 199.017 28.9241 198.985ZM21.4475 197.239C23.0803 197.239 24.2717 196.915 25.0217 196.267C25.7717 195.618 26.1467 194.806 26.1467 193.829C26.1467 192.86 25.7756 192.048 25.0334 191.392C24.2834 190.735 23.1116 190.407 21.5178 190.407C19.9944 190.407 18.8459 190.747 18.0725 191.427C17.2991 192.099 16.9124 192.911 16.9124 193.864C16.9124 194.802 17.2952 195.599 18.0608 196.255C18.8186 196.911 19.9475 197.239 21.4475 197.239ZM23.885 176.72L24.1545 174.54C25.428 174.884 26.4163 175.521 27.1194 176.45C27.8225 177.38 28.1741 178.567 28.1741 180.013C28.1741 181.833 27.6155 183.278 26.4983 184.349C25.3733 185.411 23.7991 185.942 21.7756 185.942C19.6819 185.942 18.0569 185.403 16.9006 184.325C15.7444 183.247 15.1663 181.849 15.1663 180.13C15.1663 178.466 15.7327 177.106 16.8655 176.052C17.9983 174.997 19.592 174.47 21.6467 174.47C21.7717 174.47 21.9592 174.474 22.2092 174.481V183.763C23.5764 183.685 24.6233 183.298 25.3499 182.603C26.0764 181.907 26.4397 181.04 26.4397 180.001C26.4397 179.228 26.2366 178.567 25.8303 178.021C25.4241 177.474 24.7756 177.04 23.885 176.72ZM20.4749 183.646V176.696C19.428 176.79 18.6428 177.056 18.1194 177.493C17.3069 178.165 16.9006 179.036 16.9006 180.106C16.9006 181.075 17.2249 181.892 17.8733 182.556C18.5217 183.212 19.3889 183.575 20.4749 183.646ZM27.8928 165.247H10.7131V163.138H27.8928V165.247ZM23.885 151.337L24.1545 149.157C25.428 149.501 26.4163 150.138 27.1194 151.067C27.8225 151.997 28.1741 153.185 28.1741 154.63C28.1741 156.45 27.6155 157.896 26.4983 158.966C25.3733 160.028 23.7991 160.56 21.7756 160.56C19.6819 160.56 18.0569 160.021 16.9006 158.942C15.7444 157.864 15.1663 156.466 15.1663 154.747C15.1663 153.083 15.7327 151.724 16.8655 150.669C17.9983 149.614 19.592 149.087 21.6467 149.087C21.7717 149.087 21.9592 149.091 22.2092 149.099V158.38C23.5764 158.302 24.6233 157.915 25.3499 157.22C26.0764 156.524 26.4397 155.657 26.4397 154.618C26.4397 153.845 26.2366 153.185 25.8303 152.638C25.4241 152.091 24.7756 151.657 23.885 151.337ZM20.4749 158.263V151.313C19.428 151.407 18.6428 151.673 18.1194 152.11C17.3069 152.782 16.9006 153.653 16.9006 154.724C16.9006 155.692 17.2249 156.509 17.8733 157.173C18.5217 157.829 19.3889 158.192 20.4749 158.263ZM27.8928 143.04L15.4475 147.774V145.548L22.9006 142.876C23.7053 142.587 24.5413 142.321 25.4084 142.079C24.7522 141.892 23.9631 141.63 23.0413 141.294L15.4475 138.528V136.36L27.8928 141.071V143.04ZM23.885 125.978L24.1545 123.798C25.428 124.142 26.4163 124.778 27.1194 125.708C27.8225 126.638 28.1741 127.825 28.1741 129.271C28.1741 131.091 27.6155 132.536 26.4983 133.606C25.3733 134.669 23.7991 135.2 21.7756 135.2C19.6819 135.2 18.0569 134.661 16.9006 133.583C15.7444 132.505 15.1663 131.106 15.1663 129.388C15.1663 127.724 15.7327 126.364 16.8655 125.31C17.9983 124.255 19.592 123.728 21.6467 123.728C21.7717 123.728 21.9592 123.731 22.2092 123.739V133.021C23.5764 132.942 24.6233 132.556 25.3499 131.86C26.0764 131.165 26.4397 130.298 26.4397 129.259C26.4397 128.485 26.2366 127.825 25.8303 127.278C25.4241 126.731 24.7756 126.298 23.885 125.978ZM20.4749 132.903V125.954C19.428 126.048 18.6428 126.313 18.1194 126.751C17.3069 127.423 16.9006 128.294 16.9006 129.364C16.9006 130.333 17.2249 131.149 17.8733 131.813C18.5217 132.47 19.3889 132.833 20.4749 132.903ZM27.8928 121.185H10.7131V119.075H27.8928V121.185Z" fill="black"/>
<path d="M214.196 439.783L216.34 439.596C216.442 440.455 216.676 441.162 217.043 441.717C217.418 442.264 217.997 442.709 218.778 443.053C219.559 443.389 220.438 443.557 221.415 443.557C222.282 443.557 223.047 443.428 223.711 443.17C224.375 442.912 224.868 442.561 225.188 442.115C225.516 441.662 225.68 441.17 225.68 440.639C225.68 440.1 225.524 439.631 225.211 439.232C224.899 438.826 224.383 438.486 223.665 438.213C223.204 438.033 222.184 437.756 220.606 437.381C219.028 436.998 217.922 436.639 217.29 436.303C216.469 435.873 215.856 435.342 215.45 434.709C215.051 434.068 214.852 433.354 214.852 432.564C214.852 431.697 215.098 430.889 215.59 430.139C216.083 429.381 216.801 428.807 217.747 428.416C218.692 428.025 219.743 427.83 220.899 427.83C222.172 427.83 223.293 428.037 224.262 428.451C225.239 428.857 225.989 429.459 226.512 430.256C227.036 431.053 227.317 431.955 227.356 432.963L225.176 433.127C225.059 432.041 224.661 431.221 223.981 430.666C223.309 430.111 222.313 429.834 220.993 429.834C219.618 429.834 218.614 430.088 217.981 430.596C217.356 431.096 217.043 431.701 217.043 432.412C217.043 433.029 217.266 433.537 217.711 433.936C218.149 434.334 219.29 434.744 221.133 435.166C222.985 435.58 224.254 435.943 224.942 436.256C225.942 436.717 226.68 437.303 227.157 438.014C227.633 438.717 227.872 439.529 227.872 440.451C227.872 441.365 227.61 442.229 227.086 443.041C226.563 443.846 225.809 444.475 224.825 444.928C223.848 445.373 222.747 445.596 221.52 445.596C219.965 445.596 218.661 445.369 217.606 444.916C216.559 444.463 215.735 443.783 215.133 442.877C214.54 441.963 214.227 440.932 214.196 439.783ZM230.719 445.303V428.123H232.829V437.92L237.821 432.857H240.551L235.793 437.475L241.032 445.303H238.43L234.317 438.939L232.829 440.369V445.303H230.719ZM242.719 430.549V428.123H244.829V430.549H242.719ZM242.719 445.303V432.857H244.829V445.303H242.719ZM248.004 445.303V428.123H250.114V445.303H248.004ZM253.348 445.303V428.123H255.458V445.303H253.348ZM265.372 445.303V428.123H267.481V445.303H265.372ZM279.282 441.295L281.461 441.564C281.118 442.838 280.481 443.826 279.551 444.529C278.622 445.232 277.434 445.584 275.989 445.584C274.168 445.584 272.723 445.025 271.653 443.908C270.59 442.783 270.059 441.209 270.059 439.186C270.059 437.092 270.598 435.467 271.676 434.311C272.754 433.154 274.153 432.576 275.872 432.576C277.536 432.576 278.895 433.143 279.95 434.275C281.004 435.408 281.532 437.002 281.532 439.057C281.532 439.182 281.528 439.369 281.52 439.619H272.239C272.317 440.986 272.704 442.033 273.399 442.76C274.094 443.486 274.961 443.85 276 443.85C276.774 443.85 277.434 443.646 277.981 443.24C278.528 442.834 278.961 442.186 279.282 441.295ZM272.356 437.885H279.305C279.211 436.838 278.946 436.053 278.508 435.529C277.836 434.717 276.965 434.311 275.895 434.311C274.926 434.311 274.11 434.635 273.446 435.283C272.79 435.932 272.426 436.799 272.356 437.885ZM287.579 445.303L282.844 432.857H285.071L287.743 440.311C288.032 441.115 288.297 441.951 288.54 442.818C288.727 442.162 288.989 441.373 289.325 440.451L292.09 432.857H294.258L289.547 445.303H287.579ZM304.641 441.295L306.821 441.564C306.477 442.838 305.84 443.826 304.911 444.529C303.981 445.232 302.793 445.584 301.348 445.584C299.528 445.584 298.083 445.025 297.012 443.908C295.95 442.783 295.418 441.209 295.418 439.186C295.418 437.092 295.958 435.467 297.036 434.311C298.114 433.154 299.512 432.576 301.231 432.576C302.895 432.576 304.254 433.143 305.309 434.275C306.364 435.408 306.891 437.002 306.891 439.057C306.891 439.182 306.887 439.369 306.879 439.619H297.598C297.676 440.986 298.063 442.033 298.758 442.76C299.454 443.486 300.321 443.85 301.36 443.85C302.133 443.85 302.793 443.646 303.34 443.24C303.887 442.834 304.321 442.186 304.641 441.295ZM297.715 437.885H304.665C304.571 436.838 304.305 436.053 303.868 435.529C303.196 434.717 302.325 434.311 301.254 434.311C300.286 434.311 299.469 434.635 298.805 435.283C298.149 435.932 297.786 436.799 297.715 437.885ZM309.434 445.303V428.123H311.543V445.303H309.434Z" fill="black"/>
<path opacity="0.2" d="M48.1135 140.097L463.401 294.017" stroke="black" stroke-width="3"/>
<path opacity="0.2" d="M47.6637 292.792L463.851 141.321" stroke="black" stroke-width="3"/>
<path opacity="0.2" d="M344.453 12.7275L166.262 421.818" stroke="black" stroke-width="3"/>
<path opacity="0.2" d="M344.453 421.818L166.262 12.7275" stroke="black" stroke-width="3"/>
</svg>
