<svg width="461" height="145" viewBox="0 0 461 145" fill="none" xmlns="http://www.w3.org/2000/svg">
<path d="M129 27.4L143.2 7.60005L125.6 23.4C112.4 9.20004 93.6 0.300049 72.7 0.300049C32.9 0.300049 0.599998 32.6 0.599998 72.4C0.599998 112.2 32.9 144.5 72.7 144.5C112.5 144.5 144.8 112.2 144.8 72.4C144.7 55.3 138.8 39.7 129 27.4ZM122.8 96C122.8 110.5 111 122.3 96.5 122.3H48.9C34.4 122.3 22.6 110.5 22.6 96V48.4C22.6 33.9 34.4 22.1001 48.9 22.1001H96.5C104.5 22.1001 111.7 25.7 116.6 31.4L72.5 70.8L42.6 50.5L64.2 92.2001C64.3 92.4001 64.5 92.6 64.7 92.9C64.8 93 64.9 93.1001 65 93.2001C65.2 93.5001 65.4 93.8001 65.6 94.1001C65.8 94.3001 66.1 94.5001 66.3 94.7001C69.1 97.2001 72.7 98.0001 76.2 97.2001H76.3C76.9 97.0001 77.5 96.8001 78.1 96.6001C78.2 96.6001 78.3 96.5 78.4 96.5C78.9 96.2 79.4 96.0001 79.9 95.6001C80.1 95.5001 80.2 95.4 80.3 95.3C80.5 95.1 80.8 95 81 94.8C81.2 94.6 81.3 94.5 81.5 94.3C81.6 94.2 81.7 94.2001 81.7 94.1001L81.9 93.8C82.2 93.4 82.5 93.1001 82.7 92.7001L121 39.1001C122.2 42.1001 122.9 45.4 122.9 48.8V96H122.8Z" fill="#0877B9"/>
<path d="M452.4 65.6003C448.1 65.6003 444.6 62.1002 444.6 57.8002C444.6 53.5002 448.1 50.0002 452.4 50.0002C456.7 50.0002 460.2 53.5002 460.2 57.8002C460.3 62.0002 456.8 65.6003 452.4 65.6003ZM452.4 51.3002C448.9 51.3002 446 54.2003 446 57.7003C446 61.2003 448.9 64.1003 452.4 64.1003C455.9 64.1003 458.8 61.2003 458.8 57.7003C458.8 54.2003 456 51.3002 452.4 51.3002Z" fill="#0877B9"/>
<path d="M453.8 61.6003L452.3 58.8003H451V61.6003H449.3V53.8003H453C454.6 53.8003 455.6 54.9003 455.6 56.3003C455.6 57.7003 454.7 58.4003 453.9 58.6003L455.7 61.6003H453.8ZM453.9 56.3003C453.9 55.6003 453.4 55.2003 452.7 55.2003H451V57.3003H452.8C453.4 57.4003 453.9 57.0003 453.9 56.3003Z" fill="#0877B9"/>
<path d="M239.1 123.9C206.2 123.9 184.1 103.1 184.1 72.1001C184.1 41.6001 206.7 20.3 239.1 20.3C260.4 20.3 271.5 28.5 274.3 30.9L267.7 47.9C263.5 44.4 253.1 38.3 240.5 38.3C220.3 38.3 206.7 51.7001 206.7 71.7001C206.7 91.3001 220.6 105 240.5 105C254.9 105 264.1 99.3001 269 95.1001L276.1 111.1C267 119.6 254.6 123.9 239.1 123.9Z" fill="#0877B9"/>
<path d="M308.1 21.8H286.2V122.1H308.1V21.8Z" fill="#0877B9"/>
<path d="M324.6 122.1V51.3001H346.5V122.1H324.6ZM335.6 39.7002C327.9 39.7002 322.9 35.4002 322.9 28.8002C322.9 22.3002 328 17.9001 335.6 17.9001C343.2 17.9001 348.3 22.3002 348.3 28.8002C348.2 35.4002 343.3 39.7002 335.6 39.7002Z" fill="#0877B9"/>
<path d="M399.2 123.7C374.5 123.7 358 108.9 358 86.9001C358 64.8001 374.6 49.9001 399.2 49.9001C423.8 49.9001 440.3 64.8001 440.3 86.9001C440.3 108.9 423.8 123.7 399.2 123.7ZM399.2 65.8001C387.8 65.8001 380.2 74.1002 380.2 86.5002C380.2 98.9002 387.8 107.2 399.2 107.2C410.6 107.2 418.2 98.9002 418.2 86.5002C418.2 74.1002 410.6 65.8001 399.2 65.8001Z" fill="#0877B9"/>
</svg>
