<?xml version="1.0" encoding="utf-8"?>
<!-- Generator: Adobe Illustrator 17.0.0, SVG Export Plug-In . SVG Version: 6.00 Build 0)  -->
<!DOCTYPE svg PUBLIC "-//W3C//DTD SVG 1.1//EN" "http://www.w3.org/Graphics/SVG/1.1/DTD/svg11.dtd">
<svg version="1.1" id="Layer_1" xmlns="http://www.w3.org/2000/svg" xmlns:xlink="http://www.w3.org/1999/xlink" x="0px" y="0px"
	 width="220px" height="290.348px" viewBox="0 0 220 290.348" enable-background="new 0 0 220 290.348" xml:space="preserve">
<g>
	<path d="M50,211.009c0-6.166,0-12.389,0-20.661v-50v-70h-0.007C49.994,70.231,50,70.117,50,70c0-27.614-17.909-50-40-50
		c-3.627,0-6.373,0-10,0c10,0,10,30,10,30c0,8.159,0,14.727,0,20.348V120v70.348c0,27.601,17.892,49.978,39.969,49.999
		c0.008,0,0.016,0.001,0.024,0.001c3.627,0,6.373,0,10,0C50.868,240.348,50.07,215.38,50,211.009z"/>
	<path d="M210,20c-22.091,0-40,22.386-40,50c0,0.117,0.006,0.231,0.007,0.348H170v70v50c0,8.272,0,14.495,0,20.661
		c-0.07,4.371-0.868,29.339-9.993,29.339c3.627,0,6.373,0,10,0c0.008,0,0.016-0.001,0.024-0.001
		C192.108,240.326,210,217.949,210,190.348V120V70.348c0-5.621,0-12.189,0-20.348c0,0,0-30,10-30C216.373,20,213.627,20,210,20z"/>
	<path d="M90,30v90.348v70v50V241c0,7.959,0,14.023,0,20.034c-0.074,4.474-0.893,29.314-9.993,29.314c3.627,0,6.373,0,10,0
		c0.003,0,0.006,0,0.009,0c21.909-0.011,39.69-22.042,39.971-49.348H130v-0.652v-120V30c0,0,0-30,10-30H80C90,0,90,30,90,30z"/>
</g>
</svg>
